<svg width="67" height="30" viewBox="0 0 67 30" fill="none" xmlns="http://www.w3.org/2000/svg">
<path d="M49.3985 26.7383C49.7754 26.7383 50.0537 26.8158 50.2335 26.9707C50.4132 27.1258 50.501 27.3624 50.501 27.6797C50.501 27.9968 50.4102 28.2509 50.2305 28.4307C50.0508 28.6104 49.772 28.6982 49.3985 28.6982H48.4815V29.7559H48.0733V26.7383H49.3985ZM53.3214 29.7559H52.9024L52.5958 28.9199H51.1964L50.8965 29.7559H50.4776L51.5557 26.7383H52.2501L53.3214 29.7559ZM55.8243 29.3047H55.8663V26.7383H56.2794V29.7559H55.6729L54.21 27.1934H54.168V29.7559H53.7589V26.7383H54.3614L55.8243 29.3047ZM59.5567 29.7559H59.1378L58.8311 28.9199H57.4317L57.1319 29.7559H56.713L57.7911 26.7383H58.4854L59.5567 29.7559ZM61.6407 29.2129L62.7227 26.7383H63.2901V29.7559H62.8819V27.3096H62.8604L61.8448 29.667H61.4297L60.421 27.3096H60.4034V29.7559H59.9952V26.7383H60.5694L61.6407 29.2129ZM66.6172 29.7559H66.2012L65.8946 28.9199H64.4952L64.1924 29.7559H63.7735L64.8516 26.7383H65.546L66.6172 29.7559ZM51.3018 28.6348H52.4971L51.9473 27.0234H51.8555L51.3018 28.6348ZM57.5342 28.6348H58.7325L58.1788 27.0234H58.087L57.5342 28.6348ZM64.5977 28.6348H65.793L65.2432 27.0234H65.1514L64.5977 28.6348ZM48.4786 28.416H49.3946C49.6343 28.416 49.8074 28.3529 49.9131 28.2295C50.0223 28.1026 50.0752 27.9192 50.0753 27.6797C50.0753 27.44 50.0251 27.2745 49.9229 27.1758C49.8207 27.0736 49.6448 27.0234 49.3946 27.0234H48.4786V28.416ZM65.0733 26.3154H64.7139L65.2608 25.7793H65.6797L65.0733 26.3154ZM29.1339 19.5752C30.4063 19.5752 31.0693 20.1746 31.0694 21.4717V21.9229H28.4151C28.4468 22.6488 28.5981 22.9735 29.2393 22.9736C29.6094 22.9736 30.4031 22.8707 30.7979 22.7861L30.918 23.4453H30.921C30.3182 23.5722 29.7718 23.6396 29.2325 23.6396C27.5936 23.6396 27.2628 22.7827 27.2628 21.6055C27.2629 20.1147 27.9532 19.5752 29.1339 19.5752ZM64.7217 19.5752C65.9939 19.5753 66.6563 20.1747 66.6563 21.4717V21.9229H64.002C64.0337 22.649 64.1857 22.9736 64.8272 22.9736C65.1973 22.9736 65.9865 22.8707 66.3848 22.7861L66.5049 23.4453H66.5089C65.9097 23.5722 65.3596 23.6396 64.8204 23.6396C63.1813 23.6396 62.8497 22.7828 62.8497 21.6055C62.8498 20.1147 63.541 19.5752 64.7217 19.5752ZM26.8106 23.541C26.2046 23.608 25.7993 23.6367 25.3624 23.6367C23.5048 23.6367 23.128 22.8715 23.128 21.5215C23.128 20.316 23.5469 19.5684 24.9532 19.5684C25.2387 19.5684 25.4999 19.59 25.7149 19.6182V18.0879H26.8106V23.541ZM51.0059 23.541C50.3855 23.5939 49.9938 23.6367 49.5567 23.6367C47.6995 23.6366 47.3223 22.8714 47.3223 21.5215C47.3223 20.316 47.7421 19.5684 49.1485 19.5684C49.4338 19.5684 49.6944 19.59 49.9092 19.6182V18.0879H51.0059V23.541ZM53.4171 19.5723C54.6895 19.5723 55.3526 20.1716 55.3526 21.4688V21.916H52.6983C52.73 22.642 52.8849 22.9667 53.5225 22.9668C53.8926 22.9668 54.6828 22.8649 55.0811 22.7803L55.2012 23.4395L55.2042 23.4424C54.6014 23.5693 54.055 23.6367 53.5157 23.6367C51.8768 23.6367 51.546 22.7798 51.546 21.6025C51.546 20.1116 52.2363 19.5723 53.4171 19.5723ZM61.6964 19.667H62.5674V20.3301H61.6964V22.2725C61.6964 22.7234 61.732 22.8888 61.9258 22.917C62.095 22.9416 62.2676 22.9139 62.5635 22.8857L62.6944 23.5381C62.215 23.6297 61.8728 23.6367 61.7071 23.6367C60.7414 23.6367 60.5724 23.1887 60.5723 22.2725V20.3301H59.9024V19.667H60.5723V18.7402H61.6964V19.667ZM16.0108 19.5723C16.3245 19.5864 16.786 19.667 17.1348 19.7305L17.0294 20.3721C16.6771 20.3368 16.1979 20.2382 15.9756 20.2275C15.2249 20.1958 15.0831 20.5168 15.0831 21.6094C15.0831 22.7021 15.2248 23.0157 15.9756 22.9805C16.1978 22.9734 16.6137 22.9312 17.0294 22.8467L17.0323 22.8398L17.1631 23.4883C16.8071 23.5588 16.3521 23.6187 16.0137 23.6328C14.3502 23.6962 13.9454 23.0054 13.9454 21.6025C13.9454 20.1996 14.3471 19.4982 16.0108 19.5723ZM40.6319 19.5723C40.9421 19.5864 41.404 19.667 41.753 19.7305L41.6505 20.3721C41.298 20.3368 40.8187 20.2381 40.5967 20.2275C39.8461 20.1958 39.7052 20.5169 39.7051 21.6094C39.7051 22.7021 39.846 23.0157 40.5967 22.9805C40.8188 22.9734 41.2346 22.9312 41.6505 22.8467V22.8398L41.7813 23.4883C41.4289 23.5588 40.9742 23.6187 40.6358 23.6328C38.9721 23.6963 38.5665 23.0054 38.5665 21.6025C38.5665 20.1997 38.9683 19.4983 40.6319 19.5723ZM44.0264 19.5723C44.3401 19.5864 44.8025 19.667 45.1514 19.7305L45.045 20.3721C44.6925 20.3368 44.2133 20.2381 43.9913 20.2275C43.2441 20.1958 43.0997 20.5169 43.0997 21.6094C43.0997 22.7021 43.244 23.0157 43.9913 22.9805C44.2133 22.9734 44.6291 22.9312 45.045 22.8467V22.8398L45.1758 23.4883C44.8234 23.5588 44.3687 23.6187 44.0303 23.6328C42.3666 23.6963 41.961 23.0054 41.961 21.6025C41.961 20.1997 42.3628 19.4983 44.0264 19.5723ZM19.2393 19.5752C20.487 19.5752 21.2314 20.1781 21.2315 21.542C21.2315 22.9061 20.822 23.6328 19.2393 23.6328C17.6569 23.6327 17.2169 22.991 17.2169 21.5283C17.2169 20.1467 17.8719 19.5753 19.2393 19.5752ZM7.49811 19.5752C8.59418 19.5752 9.09854 20.0899 9.09869 20.8828V23.5195C8.42896 23.5971 7.74496 23.6746 7.01178 23.6006C6.10592 23.5054 5.54596 23.0437 5.54596 22.3105C5.54604 21.6445 5.94411 21.1722 6.98737 21.0488C7.43859 20.9964 7.98689 20.9922 7.99518 20.9922V20.8408C7.99516 20.4355 7.85058 20.249 7.49811 20.249C7.12097 20.249 6.65552 20.3366 6.03522 20.46L5.91901 19.7969C6.56922 19.6668 7.02313 19.5752 7.49811 19.5752ZM35.5704 18.0283C37.2024 18.0283 38.1329 18.8358 38.1329 20.7393C38.1328 22.639 37.6288 23.626 35.5704 23.626C33.512 23.626 32.962 22.7694 32.962 20.7217C32.962 18.7936 33.7833 18.0283 35.5704 18.0283ZM46.7794 23.5625H45.6905V19.6494H46.7794V23.5625ZM3.10651 18.0811C4.31883 18.0812 5.04108 18.5857 5.04108 19.5479C5.041 20.1292 4.83672 20.492 4.51959 20.707C4.90373 20.9009 5.24211 21.2429 5.24225 21.9053C5.24225 23.1601 4.36098 23.5557 3.24713 23.5557H0.881897V18.0781H3.1026L3.10651 18.0811ZM11.5762 19.5654C12.9966 19.5654 13.4834 20.2559 13.4835 21.5176V23.5557H12.377V21.5176C12.377 20.5485 12.1613 20.2275 11.5762 20.2275C11.2874 20.2276 10.9738 20.2909 10.7764 20.3438V23.5557H9.68756V19.9639C10.3254 19.7102 10.9102 19.5655 11.5762 19.5654ZM57.7637 19.5654C59.1839 19.5655 59.6699 20.256 59.67 21.5176V23.5557H58.5635V21.5176C58.5635 20.5487 58.3485 20.2277 57.7637 20.2275C57.4747 20.2275 57.1603 20.2909 56.963 20.3438V23.5557H55.8741V19.9639C56.5121 19.7101 57.0975 19.5654 57.7637 19.5654ZM19.2393 20.2383C18.5734 20.2384 18.3448 20.464 18.3448 21.5283C18.3448 22.6666 18.4959 22.9735 19.2393 22.9736C19.9831 22.9736 20.0997 22.6136 20.0997 21.542C20.0996 20.5412 19.7645 20.2383 19.2393 20.2383ZM49.1446 20.2314C48.5949 20.3055 48.461 20.6155 48.461 21.5352C48.461 22.4552 48.5739 22.9245 49.3917 22.9668C49.4479 22.9703 49.5147 22.9736 49.585 22.9736C49.6801 22.9736 49.8072 22.9596 49.9024 22.9561V20.291L49.9063 20.2881C49.716 20.2387 49.4301 20.1927 49.1446 20.2314ZM24.9503 20.2314C24.4004 20.3055 24.2657 20.6154 24.2657 21.5352C24.2657 22.4551 24.3788 22.9174 25.1964 22.9668C25.5277 22.9844 25.7081 22.9521 25.7081 22.9521V20.2881H25.711C25.5207 20.2388 25.2356 20.1928 24.9503 20.2314ZM7.99518 21.6484C7.98869 21.6483 7.63227 21.6411 7.27252 21.6865C6.89895 21.7324 6.68756 21.9234 6.68756 22.3076C6.68765 22.5965 6.78297 22.8467 7.18463 22.9277C7.43839 22.9771 7.69246 22.963 7.99908 22.9277V21.6445L7.99518 21.6484ZM35.5665 18.79C34.4987 18.7901 34.0938 19.185 34.0938 20.7217C34.0938 22.3462 34.3367 22.8612 35.5665 22.8613L35.7833 22.8506C36.8089 22.7781 36.9981 22.1535 36.9981 20.7393C36.9981 19.2306 36.4512 18.79 35.5665 18.79ZM1.99615 22.79H3.25104C3.84293 22.79 4.1319 22.6281 4.1319 21.9092C4.13189 21.1513 3.5888 21.1475 3.19049 21.1475H1.99615V22.79ZM29.1758 20.2383C28.6721 20.2384 28.4497 20.482 28.418 21.2607H29.959C29.9308 20.4747 29.7116 20.2383 29.1758 20.2383ZM64.7598 20.2383C64.2525 20.2384 64.0337 20.4819 64.002 21.2607H65.543C65.5148 20.4747 65.2956 20.2383 64.7598 20.2383ZM53.4561 20.2354C52.9521 20.2354 52.7301 20.4781 52.6983 21.2568H54.2383C54.2101 20.4711 53.9917 20.2354 53.4561 20.2354ZM1.99615 20.3896H3.19049C3.73685 20.3896 3.9278 20.1641 3.9278 19.5508C3.92774 18.9942 3.74409 18.8536 3.10651 18.8535H1.99615V20.3896ZM5.91901 19.7969C5.91787 19.7971 5.91624 19.7976 5.9151 19.7979L5.91901 19.7939V19.7969ZM46.7794 19.0537H45.6905V18.2324H46.7794V19.0537ZM60.0049 7.06543L58.4327 8.6377L56.8926 7.09766L53.2764 10.7109L56.8926 14.3271L62.0811 9.1416L63.6534 10.7109L56.8926 17.4746L50.1319 10.7109L56.8926 3.95312L60.0049 7.06543ZM63.6534 7.06934L56.8926 13.8262L53.7803 10.7139L55.3526 9.1416L56.8926 10.6826L60.5089 7.06934L56.8926 3.45312L51.7042 8.6416L50.1319 7.06934L56.8926 0.308594L63.6534 7.06934Z" fill="white"/>
</svg>
