<svg width="55" height="31" viewBox="0 0 55 31" fill="none" xmlns="http://www.w3.org/2000/svg">
<path d="M50.9199 26.9854C51.2851 27.0116 51.5692 27.1293 51.7665 27.3359C51.9919 27.5721 52.1083 27.9532 52.1083 28.4746C52.1083 28.7562 52.09 28.9885 52.0478 29.1787C52.009 29.3655 51.9385 29.5315 51.8398 29.6689C51.7376 29.8099 51.6 29.9092 51.4238 29.9727C51.2476 30.036 51.0254 30.0635 50.7578 30.0635C50.49 30.0635 50.2572 30.0359 50.081 29.9795C49.9048 29.9231 49.7678 29.8273 49.662 29.6934C49.5564 29.5595 49.4856 29.3978 49.4433 29.2041C49.401 29.0102 49.3798 28.7631 49.3798 28.46C49.3798 27.9244 49.4892 27.544 49.704 27.3184C49.9225 27.0928 50.2715 26.9766 50.7578 26.9766L50.9199 26.9854ZM53.831 26.9834C54.1447 26.9834 54.4342 27.0003 54.7021 27.0391L54.6425 27.3252C54.3711 27.2899 54.1024 27.2715 53.831 27.2715C53.6021 27.2715 53.4334 27.3042 53.3242 27.3711C53.2149 27.4381 53.1544 27.5224 53.1474 27.6211V27.6807C53.1474 27.7899 53.176 27.878 53.2324 27.9414C53.2888 28.0049 53.405 28.0902 53.5742 28.1924C53.9723 28.4285 54.2441 28.597 54.3886 28.6992C54.5048 28.7837 54.5855 28.8862 54.6279 29.0059C54.6701 29.1291 54.6919 29.2457 54.6884 29.3584C54.6814 29.4782 54.6561 29.5847 54.6103 29.6729C54.5645 29.7608 54.5076 29.8273 54.4443 29.873C54.3809 29.9188 54.3001 29.9582 54.205 29.9863C54.1064 30.0145 54.0179 30.0359 53.9404 30.043C53.8629 30.05 53.771 30.057 53.6689 30.0605C53.6232 30.0606 53.5775 30.0635 53.5283 30.0635C53.2817 30.0635 52.9963 30.0391 52.6757 29.9863L52.7314 29.7041C53.0803 29.7499 53.3559 29.7744 53.5497 29.7744H53.6513C53.7359 29.7744 53.8068 29.7678 53.8632 29.7607C53.9195 29.7537 53.9759 29.7432 54.0322 29.7256C54.0885 29.708 54.1307 29.6863 54.166 29.6582C54.1976 29.6301 54.2259 29.595 54.247 29.5459C54.2682 29.5001 54.2786 29.4396 54.2822 29.3691C54.2821 29.2353 54.2264 29.1084 54.1103 28.9922C54.0821 28.9675 54.036 28.9319 53.9726 28.8896C53.9091 28.8473 53.8487 28.8091 53.7958 28.7773L53.5595 28.6357C53.454 28.5724 53.3797 28.5266 53.3339 28.502C53.1227 28.3787 52.9675 28.2592 52.8759 28.1465C52.7807 28.0302 52.7353 27.8815 52.7353 27.6982C52.7353 27.6737 52.7348 27.6457 52.7382 27.6143C52.7488 27.4416 52.848 27.2933 53.0312 27.1699C53.2144 27.0466 53.4787 26.9834 53.831 26.9834ZM36.5624 30.0322H36.1435L35.8369 29.1973H34.4374L34.1347 30.0322H33.7148L34.7939 27.0146H35.4911L36.5624 30.0322ZM45.622 30.0322H45.2031L44.8964 29.1973H43.497L43.1972 30.0322H42.7783L43.8564 27.0146H44.5507L45.622 30.0322ZM31.1806 27.0146H32.3369C32.6575 27.0146 32.904 27.0783 33.0732 27.2051C33.2424 27.332 33.3271 27.5259 33.3271 27.7832C33.3271 28.1216 33.2074 28.3511 32.9677 28.4639C33.2849 28.5802 33.4403 28.8124 33.4404 29.1543C33.4404 29.3164 33.4155 29.4579 33.3661 29.5742C33.3168 29.6904 33.2425 29.7823 33.1474 29.8457C33.0524 29.909 32.9467 29.9582 32.8271 29.9863C32.7072 30.0145 32.5691 30.0283 32.414 30.0283H31.1777V27.0117L31.1806 27.0146ZM38.3574 27.0117C39.0941 27.0117 39.4648 27.3076 39.4648 27.9033C39.4647 28.3861 39.2455 28.6781 38.8085 28.7803L39.5839 30.0254H39.1328L38.3925 28.8369L38.3896 28.8408H37.455V30.0283H37.0468V27.0117H38.3574ZM41.3954 27.0146C41.7162 27.0146 41.9636 27.0782 42.1328 27.2051C42.3019 27.332 42.3867 27.5259 42.3867 27.7832C42.3867 28.1216 42.2664 28.3511 42.0302 28.4639C42.3474 28.5802 42.5028 28.8124 42.5029 29.1543C42.5029 29.3164 42.478 29.4579 42.4286 29.5742C42.3793 29.6904 42.305 29.7823 42.2099 29.8457C42.1149 29.909 42.0092 29.9582 41.8896 29.9863C41.7697 30.0145 41.6316 30.0283 41.4765 30.0283H40.2402V27.0146H41.3954ZM47.4589 27.0117C47.6385 27.0118 47.8009 27.0394 47.9453 27.0957C48.0861 27.1521 48.2027 27.2268 48.2978 27.3184C48.3892 27.4099 48.4665 27.5192 48.5263 27.6494C48.5862 27.7763 48.6286 27.9101 48.6533 28.0439C48.6779 28.1814 48.6884 28.3263 48.6884 28.4814C48.6884 28.6364 48.6779 28.781 48.6533 28.9219C48.6286 29.0627 48.5862 29.2035 48.5263 29.3408C48.4664 29.4783 48.3888 29.595 48.3007 29.6973C48.2126 29.7994 48.0926 29.8766 47.9482 29.9365C47.8037 29.9964 47.6416 30.0283 47.4619 30.0283H46.1054V27.0117H47.4589ZM50.7548 27.2578C50.5151 27.2578 50.3278 27.2938 50.1904 27.3643C50.0531 27.4348 49.9506 27.5583 49.8837 27.7344C49.8169 27.9106 49.7812 28.1539 49.7812 28.4639C49.7812 28.7208 49.7956 28.9251 49.8203 29.0801C49.8484 29.2352 49.8943 29.3696 49.9648 29.4824C50.0353 29.5952 50.1344 29.6729 50.2578 29.7188C50.3811 29.7645 50.5467 29.7852 50.7509 29.7852L50.9775 29.7686C51.0444 29.7597 51.1055 29.7471 51.1601 29.7295C51.2693 29.6942 51.3611 29.6445 51.4316 29.5811C51.502 29.5176 51.5549 29.4291 51.5937 29.3164C51.6324 29.2037 51.6607 29.0799 51.6747 28.9531C51.6888 28.8229 51.6952 28.6645 51.6953 28.4746C51.6953 28.0481 51.6142 27.7378 51.4521 27.5439C51.29 27.3537 51.0578 27.2579 50.7548 27.2578ZM31.5751 28.6289V29.7461H32.414C32.622 29.7461 32.7815 29.7043 32.8837 29.6162C32.9858 29.5316 33.038 29.3762 33.038 29.1543C33.038 29.0556 33.0209 28.9744 32.9892 28.9004C32.9575 28.8299 32.9182 28.7774 32.8759 28.7422C32.8336 28.707 32.7774 28.6823 32.707 28.6611C32.6366 28.6435 32.5803 28.6324 32.538 28.6289C32.4957 28.6289 32.4423 28.626 32.3788 28.626L31.5751 28.6289ZM40.6347 28.6289V29.7461H41.4736C41.6815 29.7461 41.8401 29.7043 41.9423 29.6162C42.0445 29.5316 42.0976 29.3763 42.0976 29.1543C42.0976 29.0556 42.0795 28.9744 42.0478 28.9004C42.0162 28.8302 41.9776 28.7774 41.9355 28.7422C41.8932 28.7069 41.8361 28.6823 41.7656 28.6611C41.6952 28.6436 41.6389 28.6324 41.5966 28.6289C41.5544 28.6289 41.5017 28.626 41.4384 28.626L40.6347 28.6289ZM46.5136 29.7461H47.4589C47.6031 29.746 47.7297 29.7076 47.8388 29.6338C47.9481 29.5598 48.0328 29.4609 48.0927 29.334C48.1526 29.2107 48.1983 29.077 48.2265 28.9326C48.2547 28.7917 48.2695 28.6399 48.2695 28.4814C48.2695 28.3228 48.2547 28.1775 48.2265 28.04C48.1983 27.9063 48.1526 27.7796 48.0927 27.667C48.0328 27.5507 47.9481 27.4625 47.8388 27.3955C47.7297 27.3287 47.6032 27.2969 47.4589 27.2969H46.5136V29.7461ZM34.5361 28.9111H35.7343L35.1816 27.3008H35.0898L34.5361 28.9111ZM43.5986 28.9111H44.7939L44.2441 27.3008H44.1523L43.5986 28.9111ZM37.4521 28.5547H38.3574C38.6147 28.5547 38.7948 28.5022 38.8935 28.3965C38.9921 28.2907 39.041 28.1247 39.041 27.9062C39.0409 27.6879 38.9884 27.5326 38.8828 27.4375C38.777 27.3425 38.6009 27.2969 38.3544 27.2969H37.4521V28.5547ZM31.579 27.2969V28.3467H32.3867C32.58 28.3466 32.7171 28.3013 32.8017 28.21C32.8863 28.1183 32.9286 27.9767 32.9286 27.7793C32.9286 27.6 32.8832 27.4734 32.7919 27.3994C32.7003 27.3289 32.5483 27.29 32.3369 27.29L31.579 27.2969ZM40.6376 27.2969V28.3467H41.4453C41.639 28.3467 41.7767 28.3015 41.8613 28.21C41.9459 28.1183 41.9882 27.9767 41.9882 27.7793C41.9882 27.5998 41.942 27.4734 41.8505 27.3994C41.7589 27.3289 41.6069 27.29 41.3954 27.29L40.6376 27.2969ZM7.92377 19.7959C8.23734 19.81 8.69513 19.8942 9.04388 19.9541L8.94232 20.5928C8.59336 20.5575 8.11361 20.4588 7.89154 20.4482C7.14432 20.4165 7.00287 20.7335 7.00287 21.8262C7.00287 22.9188 7.14434 23.2296 7.89154 23.1943C8.10949 23.1873 8.52362 23.1437 8.93842 23.0596L9.06927 23.7051C8.71341 23.7755 8.26211 23.8355 7.92377 23.8496C6.26707 23.9095 5.86127 23.2252 5.86127 21.8223C5.86134 20.4196 6.2637 19.7219 7.92377 19.7959ZM11.3076 19.7959C11.6211 19.8101 12.0789 19.8942 12.4277 19.9541L12.3261 20.5928C11.9736 20.5575 11.4935 20.4588 11.2714 20.4482C10.5245 20.4167 10.3837 20.7337 10.3837 21.8262C10.3837 22.9187 10.5246 23.2294 11.2714 23.1943C11.4929 23.1873 11.9109 23.1437 12.3222 23.0596L12.4531 23.7051C12.0972 23.7755 11.6459 23.8355 11.3076 23.8496C9.65086 23.9095 9.24506 23.2252 9.24506 21.8223C9.24513 20.4196 9.64749 19.7219 11.3076 19.7959ZM18.2695 23.7539C17.6492 23.8068 17.2611 23.8496 16.8242 23.8496C14.9737 23.8496 14.5967 23.0882 14.5966 21.7383C14.5966 20.5363 15.0121 19.792 16.415 19.792C16.7005 19.792 16.9613 19.8101 17.1728 19.8418V18.3154H18.2695V23.7539ZM20.6767 19.7998C21.9454 19.8 22.6083 20.3989 22.6083 21.6924V22.1396H19.9609C19.9926 22.8656 20.1439 23.1864 20.7851 23.1865C21.1552 23.1865 21.9421 23.0846 22.3369 23L22.455 23.6553C21.8562 23.782 21.3069 23.8496 20.7714 23.8496C19.1359 23.8496 18.8085 22.9961 18.8085 21.8223C18.8086 20.335 19.4959 19.7998 20.6767 19.7998ZM32.1786 19.7998C33.2711 19.7999 33.7714 20.314 33.7714 21.1035V23.7334C33.1053 23.8109 32.425 23.8885 31.6884 23.8145C30.7825 23.7228 30.2255 23.257 30.2255 22.5273C30.2256 21.8648 30.6243 21.3929 31.664 21.2695C32.1119 21.2175 32.6519 21.213 32.6679 21.2129V21.0615C32.6679 20.6562 32.5233 20.4727 32.1708 20.4727C31.7902 20.4727 31.332 20.5638 30.7119 20.6836L30.5917 20.0215H30.5995C31.2515 19.8911 31.7029 19.7998 32.1786 19.7998ZM44.8466 19.7998C45.9393 19.7998 46.4404 20.3139 46.4404 21.1035V23.7334C45.7742 23.8109 45.0934 23.8885 44.3603 23.8145C43.4544 23.7228 42.8974 23.257 42.8974 22.5273C42.8975 21.8648 43.2962 21.3929 44.3359 21.2695C44.7837 21.2175 45.3238 21.213 45.3398 21.2129V21.0615C45.3398 20.6562 45.1952 20.4727 44.8427 20.4727C44.4621 20.4727 44.0004 20.5638 43.3837 20.6836L43.2636 20.0215H43.2675C43.9196 19.8911 44.3708 19.7998 44.8466 19.7998ZM28.9316 18.9678V19.8906H29.7988V20.5498H28.9316V22.4854C28.9316 22.9327 28.9671 23.1016 29.1572 23.1299C29.3264 23.1546 29.4958 23.1304 29.7919 23.0986L29.9218 23.7471C29.4462 23.8386 29.104 23.8428 28.9384 23.8428C27.9765 23.8426 27.8076 23.3978 27.8076 22.4814V20.5469H27.1376V19.8877H27.8076V18.9639H28.9286L28.9316 18.9678ZM2.87592 18.252C4.50064 18.252 5.43143 19.0556 5.43158 20.9551L5.42474 21.3037C5.36226 22.974 4.8024 23.8349 2.87592 23.835C0.820904 23.835 0.274353 22.9819 0.274353 20.9375C0.274473 19.0167 1.09245 18.252 2.87592 18.252ZM14.0527 23.7754H12.9677V19.873H14.0527V23.7754ZM35.4101 23.7754H34.2861V18.3086H35.4101V23.7754ZM52.3476 21.1182L53.6093 19.8701H54.8818L53.0703 21.6533L54.8466 23.7754H53.6064L52.3515 22.2383H52.3476V23.7754H51.2236V18.3086H52.3476V21.1182ZM40.4687 18.3086C41.6777 18.3086 42.4003 18.8092 42.4003 19.7715C42.4003 20.3527 42.1962 20.7157 41.8828 20.9307C42.2669 21.121 42.6054 21.4669 42.6054 22.126C42.6053 23.3772 41.7235 23.7715 40.6132 23.7715H38.2558V18.3086H40.4687ZM25.0048 19.792C26.4218 19.792 26.9052 20.4799 26.9052 21.7383V23.7686H25.8046V21.7383C25.8046 20.7725 25.59 20.4512 25.0048 20.4512C24.716 20.4512 24.4059 20.5145 24.205 20.5674V23.7686H23.1191V20.1875H23.123C23.7574 19.9373 24.3422 19.792 25.0048 19.792ZM48.9101 19.792C50.3271 19.792 50.8105 20.4799 50.8105 21.7383V23.7686H49.7109V21.7383C49.7109 20.7725 49.4952 20.4512 48.9101 20.4512C48.6213 20.4512 48.308 20.5146 48.1142 20.5674V23.7686H47.0283V20.1875C47.6626 19.9373 48.2476 19.7921 48.9101 19.792ZM16.415 20.4512C15.8687 20.5252 15.7343 20.8321 15.7343 21.752C15.7343 22.6719 15.8474 23.1373 16.665 23.1797C16.7214 23.1832 16.7853 23.1865 16.8593 23.1865C16.9545 23.1865 17.0812 23.1725 17.1728 23.1689V20.5078C16.9825 20.4585 16.6969 20.4124 16.415 20.4512ZM32.6679 21.8652C32.6283 21.865 32.2902 21.8636 31.9492 21.9033C31.572 21.9491 31.3642 22.1402 31.3642 22.5244C31.3643 22.8133 31.4594 23.0631 31.8574 23.1406C32.1111 23.19 32.3649 23.1758 32.6679 23.1406V21.8652ZM45.3437 21.8652C45.3437 21.8652 44.9841 21.861 44.621 21.9033C44.2439 21.9491 44.0361 22.1402 44.0361 22.5244C44.0361 22.8133 44.1315 23.0631 44.5331 23.1406C44.7869 23.1899 45.0406 23.1759 45.3437 23.1406V21.8652ZM2.87592 19.0137C1.8115 19.0137 1.40626 19.408 1.40619 20.9375C1.40619 22.5554 1.64925 23.0703 2.87592 23.0703C4.09183 23.0702 4.30365 22.464 4.30365 20.959C4.30363 19.454 3.75701 19.0137 2.87592 19.0137ZM8.94232 23.0596C8.94118 23.0598 8.93955 23.0593 8.93842 23.0596V23.0566L8.94232 23.0596ZM12.3261 23.0596C12.325 23.0598 12.3233 23.0593 12.3222 23.0596V23.0566L12.3261 23.0596ZM39.3583 23.0068H40.6103C41.2022 23.0068 41.4872 22.8448 41.4872 22.126C41.4872 21.3716 40.9445 21.3682 40.5497 21.3682H39.3583V23.0068ZM20.7148 20.4551C20.2109 20.4551 19.9891 20.6983 19.9609 21.4736H21.4941C21.4659 20.6911 21.247 20.4551 20.7148 20.4551ZM39.3583 20.6104H40.5536C41.0998 20.6103 41.287 20.3845 41.287 19.7715C41.287 19.2181 41.1032 19.0732 40.4687 19.0732H39.3583V20.6104ZM14.0527 19.2773H12.9677V18.4561H14.0527V19.2773ZM49.1542 6.75684L47.582 8.3291L46.0419 6.78906L42.4247 10.4053L46.0419 14.0186L51.2304 8.83301L52.8027 10.4053L46.0419 17.166L39.2812 10.4053L46.0419 3.64453L49.1542 6.75684ZM52.8027 6.76074L46.0419 13.5215L42.9286 10.4053L44.5009 8.83301L46.0419 10.374L49.6581 6.76074L46.0419 3.14453L40.8525 8.33301L39.2812 6.76074L46.0419 0L52.8027 6.76074Z" fill="white"/>
</svg>
