<svg width="35" height="31" viewBox="0 0 35 31" fill="none" xmlns="http://www.w3.org/2000/svg">
<path d="M16.0588 27.2168C16.278 27.2257 16.6011 27.2817 16.8439 27.3262L16.7697 27.7734C16.521 27.7468 16.1865 27.6759 16.0295 27.6699C15.5082 27.6462 15.4074 27.8686 15.4074 28.6357C15.4074 29.4028 15.5052 29.6223 16.0295 29.5986C16.1835 29.5927 16.4767 29.5631 16.7668 29.5039L16.7726 29.5068L16.8644 29.96C16.6157 30.0073 16.2986 30.0517 16.0617 30.0605C14.8949 30.1049 14.6135 29.6219 14.6135 28.6387C14.6135 27.6553 14.8948 27.1635 16.0588 27.2168ZM18.4279 27.2168C18.6501 27.2257 18.9702 27.2817 19.216 27.3262L19.1418 27.7734C18.896 27.7468 18.5615 27.6759 18.4045 27.6699C17.8802 27.6462 17.7795 27.8686 17.7795 28.6357C17.7795 29.4028 17.8803 29.6223 18.4045 29.5986C18.5585 29.5927 18.8516 29.5631 19.1418 29.5039V29.5068L19.2336 29.96C18.9848 30.0073 18.6677 30.0517 18.4308 30.0605C17.264 30.1049 16.9826 29.6219 16.9826 28.6387C16.9826 27.6553 17.264 27.1635 18.4279 27.2168ZM8.2326 28.6924C8.23265 29.3704 8.38447 29.5957 8.79315 29.5957C8.93527 29.5956 9.11312 29.5511 9.24335 29.5156V27.2676H10.0305V29.7793C9.58942 29.9568 9.16319 30.0576 8.79315 30.0576C7.79805 30.0576 7.43386 29.5748 7.43378 28.6924V27.2646H8.2326V28.6924ZM23.3156 29.9893C22.8802 30.0248 22.6071 30.0576 22.299 30.0576C20.9991 30.0575 20.7355 29.5239 20.7355 28.5762C20.7356 27.7323 21.0288 27.2081 22.0119 27.208C22.2132 27.208 22.397 27.2225 22.5451 27.2402V26.1719H23.3156V29.9893ZM32.9182 27.2109C33.8095 27.211 34.2746 27.6318 34.2746 28.5381V28.8516H32.4172C32.4379 29.3608 32.5475 29.5868 32.9943 29.5869C33.255 29.5869 33.8067 29.5153 34.0851 29.4561L34.1682 29.918V29.9209C33.7476 30.0098 33.3617 30.0576 32.9855 30.0576C31.8367 30.0575 31.6057 29.459 31.6057 28.6328C31.6057 27.5902 32.0888 27.2109 32.9182 27.2109ZM25.007 27.208C25.8983 27.2081 26.3635 27.6289 26.3635 28.5352V28.8486H24.506C24.5268 29.3579 24.6363 29.5867 25.0832 29.5869C25.3438 29.5869 25.8986 29.5153 26.174 29.4561L26.257 29.918C25.8364 30.0068 25.4506 30.0547 25.0744 30.0547C23.9256 30.0546 23.6945 29.4561 23.6945 28.6299C23.6945 27.5873 24.1777 27.208 25.007 27.208ZM30.8 27.2764H31.4103V27.7383H30.8V29.0977C30.8 29.4144 30.8242 29.5299 30.9601 29.5508C31.0786 29.5685 31.1973 29.551 31.4074 29.5303L31.4992 29.9863C31.165 30.0514 30.9254 30.0547 30.8098 30.0547C30.1315 30.0547 30.0158 29.7404 30.0158 29.1006V27.7412H29.548V27.2793H30.0158V26.6309H30.8V27.2764ZM12.507 26.127C13.6503 26.127 14.3019 26.6926 14.3019 28.0254C14.3019 29.3553 13.9495 30.0459 12.507 30.0459C11.0649 30.0458 10.6799 29.4472 10.6799 28.0107C10.6799 26.6602 11.2544 26.1271 12.507 26.127ZM7.09296 29.9834C6.63093 30.0189 6.40879 30.0371 6.10077 30.0371C4.80343 30.0371 4.48944 29.5123 4.48944 28.5645C4.48948 27.6849 4.73532 27.1993 5.76581 27.1992C5.96716 27.1992 6.16277 27.2408 6.29901 27.2764V26.1719H7.09296V29.9834ZM20.3537 30.0039H19.593V27.2646H20.3537V30.0039ZM28.0432 27.208C29.0381 27.2081 29.3761 27.6908 29.3762 28.5762V30.001H28.6027V28.5762C28.6027 27.8982 28.4517 27.6729 28.0432 27.6729C27.8388 27.6729 27.6218 27.7174 27.4826 27.7559V30.0039H26.7219V27.4863C27.1661 27.3086 27.5781 27.208 28.0432 27.208ZM2.96991 26.707H0.893738V27.9014H2.62323V28.4375H0.893738V29.998H0.0997925V26.1709H2.96991V26.707ZM4.08026 29.998H3.29315V27.2646H4.08026V29.998ZM22.0119 27.6699C21.6271 27.7233 21.5354 27.9397 21.5353 28.582C21.5353 29.2247 21.6152 29.5543 22.1867 29.584C22.2252 29.584 22.2731 29.5869 22.3234 29.5869C22.3915 29.5869 22.4771 29.5743 22.5451 29.5713V27.709C22.4118 27.6734 22.2103 27.6403 22.0119 27.6699ZM5.76288 27.6611C5.38397 27.6612 5.28634 27.8835 5.28632 28.5732C5.28632 29.2632 5.37801 29.5358 5.95233 29.5625C5.99084 29.5655 6.0387 29.5684 6.08905 29.5684C6.15709 29.5684 6.22804 29.5684 6.29608 29.5625V27.7441C6.15984 27.7056 5.96422 27.6611 5.76288 27.6611ZM12.507 26.6602C11.7609 26.6602 11.4738 26.9357 11.4738 28.0107C11.4738 29.148 11.6425 29.5067 12.507 29.5068L12.6594 29.5049C13.3784 29.4541 13.509 29.0167 13.509 28.0254C13.5089 26.9681 13.1231 26.6602 12.507 26.6602ZM32.9445 27.6758C32.5891 27.6758 32.435 27.8477 32.4142 28.3926H33.4924C33.4716 27.8418 33.3206 27.6758 32.9445 27.6758ZM25.0305 27.6729C24.678 27.6729 24.5209 27.8448 24.5002 28.3896H25.5783C25.5576 27.8389 25.4065 27.6729 25.0305 27.6729ZM4.08026 26.9648H3.29315V26.3906H4.08026V26.9648ZM20.3537 26.8467H19.593V26.2725H20.3537V26.8467ZM30.8039 26.6309H30.8V26.6279L30.8039 26.6309Z" fill="white"/>
<path d="M21.7072 9.8125L19.423 12.0967L17.1866 9.86035L11.9357 15.1084L17.1866 20.3604L24.7198 12.8252L27.0031 15.1084L17.1866 24.9248L7.37122 15.1084L17.1866 5.29297L21.7072 9.8125ZM27.0031 9.81543L17.1866 19.6318L12.6642 15.1123L14.9484 12.8281L17.1866 15.0645L22.4357 9.81543L17.1866 4.56738L9.65149 12.0996L7.37122 9.81543L17.1866 0L27.0031 9.81543Z" fill="white"/>
</svg>
