<svg width="24" height="24" viewBox="0 0 24 24" fill="none" xmlns="http://www.w3.org/2000/svg">
<path fill-rule="evenodd" clip-rule="evenodd" d="M14.8 14.2001V19.8001H13.2L13.199 15.8001H2.799L2.8 19.8001H1.2V14.2001H14.8ZM22.8 13.2001V17.8001H21.2L21.199 14.8001H16.0232V13.2001H22.8ZM8.03553 3.41895L12.7024 8.08585L8.03553 12.7528L3.36863 8.08585L8.03553 3.41895ZM18.1213 5.83316L21.374 9.08585L18.1213 12.3385L14.8686 9.08585L18.1213 5.83316ZM8.03571 5.68075L5.63155 8.08492L8.03571 10.4891L10.4399 8.08492L8.03571 5.68075ZM18.1216 8.09512L17.1317 9.08507L18.1216 10.075L19.1116 9.08507L18.1216 8.09512Z" fill="white"/>
</svg>
