<svg width="25" height="24" viewBox="0 0 25 24" fill="none" xmlns="http://www.w3.org/2000/svg">
<g clip-path="url(#clip0_4768_8115)">
<path d="M24.026 6.97453C24.026 4.86516 22.4745 3.16828 20.5573 3.16828C17.9604 3.04687 15.3119 3 12.6054 3H11.7616C9.06164 3 6.40851 3.04687 3.81164 3.16875C1.89914 3.16875 0.347575 4.875 0.347575 6.98437C0.230388 8.65266 0.1807 10.3214 0.183513 11.9902C0.178825 13.6589 0.23195 15.3292 0.342888 17.0011C0.342888 19.1105 1.89445 20.8214 3.80695 20.8214C6.53508 20.948 9.33351 21.0042 12.1788 20.9995C15.0288 21.0089 17.8195 20.9495 20.5507 20.8214C22.4679 20.8214 24.0194 19.1105 24.0194 17.0011C24.132 15.3277 24.1835 13.6589 24.1788 11.9855C24.1894 10.3167 24.1385 8.64641 24.026 6.97453ZM9.88664 16.5886V7.37766L16.6835 11.9808L9.88664 16.5886Z" fill="white"/>
</g>
<defs>
<clipPath id="clip0_4768_8115">
<rect width="24" height="24" fill="white" transform="translate(0.181885)"/>
</clipPath>
</defs>
</svg>
