<svg width="24" height="24" viewBox="0 0 24 24" fill="none" xmlns="http://www.w3.org/2000/svg">
<path d="M20.0559 1.5H3.32646C2.41233 1.5 1.61365 2.18906 1.61365 3.13547V20.7005C1.61365 21.652 2.41233 22.5 3.32646 22.5H20.051C20.97 22.5 21.6591 21.6464 21.6591 20.7005V3.13547C21.6645 2.18906 20.97 1.5 20.0559 1.5ZM7.82729 19.0045H4.9556V9.65063H7.82729V19.0045ZM6.49078 8.22844H6.4702C5.55115 8.22844 4.95605 7.51172 4.95605 6.61453C4.95605 5.70094 5.56681 5.00109 6.50644 5.00109C7.44607 5.00109 8.02103 5.69578 8.04162 6.61453C8.04117 7.51172 7.44607 8.22844 6.49078 8.22844ZM18.3225 19.0045H15.4508V13.89C15.4508 12.6647 15.0329 11.8275 13.994 11.8275C13.2002 11.8275 12.7304 12.39 12.5214 12.938C12.4431 13.1348 12.4221 13.403 12.4221 13.6767V19.0045H9.55039V9.65063H12.4221V10.9523C12.84 10.3289 13.4928 9.43172 15.0119 9.43172C16.897 9.43172 18.323 10.7334 18.323 13.5398L18.3225 19.0045Z" fill="white"/>
</svg>
