<svg width="81" height="22" viewBox="0 0 81 22" fill="none" xmlns="http://www.w3.org/2000/svg">
<path d="M16.3477 16.7694L12.1895 20.908C11.5542 21.5406 10.5251 21.5406 9.88974 20.908V20.9061L6.4581 17.4842C7.72881 18.7519 9.78594 18.7521 11.0538 17.4842L14.0567 14.4813L16.3477 16.7694ZM10.7618 17.1981C9.53524 18.4245 7.56921 18.4606 6.29306 17.3114L5.73447 16.7498L8.02548 14.4618L10.7618 17.1981ZM49.2403 5.75374C49.3338 5.75377 49.4112 5.83114 49.4112 5.92464V12.4129C49.411 14.635 47.612 16.4362 45.3927 16.4364C43.1732 16.4364 41.3744 14.635 41.3741 12.4129C41.3741 10.1906 43.1731 8.38851 45.3927 8.38851C46.446 8.38856 47.4032 8.79309 48.1183 9.45589V5.92464C48.1183 5.83128 48.1949 5.75399 48.2882 5.75374H49.2403ZM36.7042 8.38362C38.9237 8.38374 40.7228 10.1848 40.7228 12.4071C40.7227 12.5446 40.7084 12.6793 40.6974 12.825C40.6919 12.9103 40.6233 12.9815 40.5353 12.9842H34.0362C34.3003 14.2164 35.395 15.1434 36.7042 15.1434C37.6668 15.1433 38.5114 14.6429 38.9981 13.8866L39.0255 13.8455C39.02 13.8565 39.0144 13.8648 39.0089 13.8758C39.0363 13.8237 39.0884 13.7851 39.1515 13.785H40.2325C40.326 13.785 40.4034 13.8624 40.4034 13.9559C40.4033 13.972 40.3981 13.9857 40.3927 14.0018C40.3899 14.0127 40.3845 14.027 40.379 14.0379C39.7547 15.4488 38.3433 16.4333 36.7042 16.4334C34.4847 16.4334 32.6858 14.6322 32.6856 12.41C32.6856 10.2571 34.3737 8.49922 36.4972 8.39144L36.7042 8.38362ZM74.002 8.38558C76.1886 8.38558 77.9682 10.1381 78.0177 12.3192H78.0206V16.1532C78.0205 16.2466 77.9432 16.3231 77.8497 16.3231H76.9044C76.8109 16.3231 76.7336 16.2466 76.7335 16.1532V15.2508C76.1037 16.0292 75.0582 16.4334 74.002 16.4334C71.7827 16.4333 69.9846 14.6321 69.9845 12.41C69.9845 10.1878 71.8156 8.38573 74.002 8.38558ZM28.9337 6.51253C28.9337 6.51253 32.1661 6.41668 32.1661 9.86019C32.1661 11.4169 31.5326 12.7425 30.0392 13.1688L32.0616 15.5262C32.0736 15.5423 32.1427 15.6192 32.2296 15.7166L32.504 16.0379C32.534 16.0681 32.5537 16.1116 32.5538 16.158C32.5538 16.2514 32.4822 16.3232 32.3917 16.3289H31.046C30.9609 16.3288 30.9084 16.2631 30.837 16.1698C30.7794 16.0957 30.7002 15.9992 30.6534 15.9442C29.6935 14.8 29.2062 14.2113 28.5186 13.3504C28.3922 13.191 28.2932 13.1662 28.0899 13.1717C27.507 13.1827 25.9423 13.1766 25.7491 13.1766V16.1668C25.7491 16.2575 25.6717 16.326 25.5782 16.326H24.5694C24.476 16.326 24.3987 16.2494 24.3985 16.1561C24.3985 16.1561 24.3985 6.76558 24.3985 6.67757C24.3987 6.57321 24.4729 6.51253 24.5636 6.51253H28.9337ZM17.2286 11.3123C18.4579 12.5363 18.4933 14.4977 17.3409 15.7684V15.7703L16.7804 16.326L14.4835 14.0409L17.2286 11.3123ZM63.253 8.81527C63.3245 8.81527 63.3827 8.85943 63.4103 8.92269L66.0235 14.7391L68.6358 8.91976C68.6606 8.8565 68.7215 8.81527 68.7931 8.81527H69.8272C69.9205 8.81546 69.997 8.89195 69.9972 8.98519C69.9972 9.00994 69.9917 9.03252 69.9835 9.05452L66.7657 16.2352C66.7355 16.2929 66.6723 16.3295 66.6036 16.3241H65.4288C65.3576 16.324 65.3001 16.2825 65.2726 16.2196L62.0597 9.05159C62.0514 9.02959 62.046 9.00719 62.046 8.98519C62.0462 8.89184 62.1235 8.81527 62.2169 8.81527H63.253ZM80.5235 5.75081C80.617 5.75093 80.6935 5.82827 80.6935 5.92171V16.1532C80.6934 16.2466 80.6169 16.3239 80.5235 16.3241H79.5685C79.4779 16.3211 79.4044 16.2465 79.4044 16.1532V5.92171C79.4044 5.82823 79.4809 5.75087 79.5743 5.75081H80.5235ZM4.56552 6.4637C3.295 7.7289 3.29489 9.78042 4.56552 11.0428L7.58017 14.0379L5.2833 16.3231L1.13291 12.1756C0.497632 11.543 0.497586 10.5172 1.13291 9.8846L4.56552 6.4637ZM57.4972 6.34554C59.7166 6.34568 61.5157 8.14673 61.5157 10.369V16.1502C61.5157 16.2437 61.4354 16.3211 61.3419 16.3211H60.3878C60.297 16.3184 60.2257 16.241 60.2257 16.1502V16.1444L60.2198 13.1883H54.7628V16.1532C54.7627 16.2492 54.6862 16.3229 54.5929 16.3231H53.6437C53.5474 16.3231 53.4709 16.2466 53.4708 16.1532V10.3719C53.4708 8.21887 55.1587 6.46089 57.2823 6.35335L57.4972 6.34554ZM20.9493 9.89046C21.5847 10.5231 21.5847 11.5489 20.9493 12.1815L17.5167 15.6034C18.7874 14.3382 18.7874 12.2885 17.5167 11.0233L14.503 8.02816L16.7989 5.743L20.9493 9.89046ZM45.3927 9.67562C43.8882 9.67562 42.6612 10.9029 42.6612 12.4129C42.6615 13.8281 43.7394 14.9941 45.1134 15.1346L45.3956 15.1493C46.8997 15.149 48.1258 13.9226 48.1261 12.4129C48.1261 12.3909 48.1183 12.283 48.1183 12.283C48.0494 10.8337 46.897 9.67572 45.3927 9.67562ZM73.9991 9.67562C72.495 9.67587 71.2689 10.9023 71.2686 12.4119C71.2686 13.9218 72.4949 15.149 73.9991 15.1493C75.5036 15.1493 76.7306 13.9219 76.7306 12.4119C76.7303 10.9022 75.5034 9.67562 73.9991 9.67562ZM25.7462 11.8241H29.1983C30.235 11.8239 30.8185 10.9215 30.8185 9.87093C30.8184 8.82032 30.0145 7.85237 29.0821 7.85237H25.7462V11.8241ZM57.4854 7.60433C55.9784 7.60457 54.755 8.83181 54.755 10.3416C54.755 10.4399 54.7579 11.8211 54.7579 11.8211H60.212C60.212 11.8211 60.2169 10.3743 60.2169 10.3416C60.2169 8.83166 58.9927 7.60433 57.4854 7.60433ZM36.7042 9.67269C35.4638 9.67269 34.4132 10.5096 34.0831 11.6483H39.3253C38.9953 10.5097 37.9445 9.67278 36.7042 9.67269ZM5.30283 5.74007L7.5997 8.02523L4.85459 10.7537C3.62515 9.52981 3.58888 7.56838 4.7413 6.29769V6.29573L5.30283 5.74007ZM11.3233 4.86507C12.55 3.6387 14.516 3.60319 15.7921 4.75277L16.3507 5.31331L14.0597 7.6014L11.3233 4.86507ZM9.89267 1.15511C10.528 0.522516 11.5571 0.522516 12.1925 1.15511V1.15804L15.6251 4.57894C14.3545 3.31116 12.2973 3.31134 11.0294 4.57894L8.02548 7.58284L5.73447 5.29476L9.89267 1.15511Z" fill="white"/>
</svg>
