<svg width="40" height="12" viewBox="0 0 40 12" fill="none" xmlns="http://www.w3.org/2000/svg">
<path d="M15.1104 3.21387C16.3068 3.21388 17.1586 3.59946 17.7568 4.2207V3.44922H20.4258V11.6777H17.7568V10.9062C17.1814 11.5278 16.3068 11.9141 15.1104 11.9141C12.7865 11.9141 10.877 10.0063 10.877 7.56348C10.8771 5.09917 12.7866 3.21387 15.1104 3.21387ZM10.0488 0.149414V8.14258C9.63502 7.90675 9.15163 7.77839 8.64551 7.77832C8.17588 7.77999 7.71474 7.89826 7.31055 8.12109C7.35654 7.94967 7.37988 7.75628 7.37988 7.54199C7.37967 6.2994 6.48185 5.52832 5.2627 5.52832C4.04359 5.52836 3.1467 6.29943 3.14648 7.54199C3.14648 8.78482 4.04344 9.5566 5.2627 9.55664C5.58463 9.55664 5.88421 9.51356 6.16016 9.40625C6.04503 9.66332 5.99905 9.94228 5.99902 10.2422C5.99908 10.7125 6.1427 11.1732 6.41309 11.5703C5.95282 11.7846 5.37725 11.8926 4.7334 11.8926C2.40936 11.8924 0.5 10.006 0.5 7.54199C0.500234 5.09946 2.40987 3.19255 4.7334 3.19238C5.92952 3.19238 6.80482 3.57762 7.37988 4.19922V0.149414H10.0488ZM8.64453 8.625C9.10821 8.625 9.55357 8.79428 9.88477 9.09668C10.2159 9.399 10.4065 9.81031 10.416 10.2422C10.4164 11.1634 9.6107 11.8926 8.64453 11.8926C7.65502 11.9139 6.87305 11.1636 6.87305 10.2422C6.88259 9.81034 7.07322 9.399 7.4043 9.09668C7.73548 8.79428 8.18087 8.62502 8.64453 8.625ZM30.2734 3.19238C32.8497 3.1925 34.782 5.05658 34.7822 7.54199C34.7822 7.88485 34.7368 8.22832 34.668 8.52832H28.3857C28.708 9.40663 29.5365 9.68551 30.5029 9.68555C31.2387 9.68555 31.8603 9.42788 32.2051 9.06348L34.3223 10.1992C33.4477 11.3135 32.1366 11.8926 30.457 11.8926C27.4199 11.8925 25.5566 9.98482 25.5566 7.54199C25.5567 5.07793 27.4662 3.19238 30.2734 3.19238ZM37.4512 8.59277C38.4176 8.59277 39.2235 9.34231 39.2236 10.2422C39.2236 11.1634 38.4177 11.8926 37.4512 11.8926C36.485 11.8925 35.6797 11.1638 35.6797 10.2422C35.6798 9.32074 36.4851 8.59281 37.4512 8.59277ZM24.6133 11.6787H21.9443V0.149414H24.6133V11.6787ZM15.6621 5.52832C14.443 5.5285 13.5459 6.30026 13.5459 7.54297C13.5461 8.78542 14.4432 9.55646 15.6621 9.55664C16.8816 9.55664 17.7791 8.78557 17.7793 7.54297C17.7793 6.30011 16.8818 5.52832 15.6621 5.52832ZM38.7627 7.71387H36.0947V0.149414H38.7627V7.71387ZM30.25 5.37793C29.2375 5.37793 28.5705 5.84966 28.3174 6.68555H32.1367C31.8608 5.72109 31.055 5.37793 30.25 5.37793Z" fill="white"/>
</svg>
