<svg width="25" height="24" viewBox="0 0 25 24" fill="none" xmlns="http://www.w3.org/2000/svg">
<path fill-rule="evenodd" clip-rule="evenodd" d="M6.6468 2.903L11.4266 7.68276L8.91498 10.1931L9.07372 10.5325C9.56765 11.5436 10.2354 12.5127 11.0541 13.3919L11.3681 13.7173C12.4388 14.787 13.6598 15.6268 14.9357 16.1904L14.893 16.1701L17.4038 13.661L22.1821 18.4393L19.5514 21.0699C18.6245 21.9969 17.2891 22.3898 15.9671 22.1403C13.0968 21.5977 10.1095 19.9414 7.62701 17.4589C5.14455 14.9765 3.48825 11.9891 2.94556 9.11859C2.69618 7.79685 3.08909 6.46149 4.01644 5.53414L6.6468 2.903ZM6.64698 5.16606L5.14738 6.66595C4.60014 7.21318 4.36504 8.0122 4.51777 8.82165C4.99844 11.3642 6.49597 14.0652 8.75838 16.3276C11.0208 18.59 13.7218 20.0875 16.264 20.5681C17.0738 20.7209 17.8728 20.4858 18.42 19.9386L19.919 18.4391L17.403 15.9221L16.0054 17.3219C15.5559 17.7715 14.8747 17.9123 14.2895 17.6541C12.8318 17.0102 11.4467 16.0576 10.237 14.8489C9.0275 13.6394 8.07565 12.2552 7.43183 10.7951C7.17603 10.2107 7.31606 9.53052 7.76501 9.08157L9.16398 7.68206L6.64698 5.16606ZM13.4891 6.19114C14.7668 6.17379 16.0006 6.66128 16.9197 7.58038C17.7775 8.4382 18.2593 9.57016 18.3057 10.7561L18.3089 11.0109L18.298 11.8109L16.6982 11.7891L16.7091 10.9892C16.7206 10.138 16.398 9.32145 15.7883 8.71175C15.2294 8.15285 14.4967 7.83519 13.7228 7.79503L13.5108 7.79099L12.7109 7.80185L12.6892 6.202L13.4891 6.19114ZM13.5 2.16406C15.8269 2.16406 18.0686 3.07332 19.7477 4.75238C21.3504 6.35511 22.2517 8.47052 22.3304 10.6833L22.336 11.0001V11.8001H20.736V11.0001C20.736 9.09334 19.9922 7.25969 18.6163 5.88375C17.3128 4.58022 15.5985 3.8441 13.8004 3.77023L13.5 3.76406H12.7V2.16406H13.5Z" fill="white"/>
</svg>
