<svg width="25" height="24" viewBox="0 0 25 24" fill="none" xmlns="http://www.w3.org/2000/svg">
<path d="M12.7498 2.2002C18.1416 2.2002 22.5495 6.60826 22.5496 12C22.5496 17.3918 18.1416 21.7998 12.7498 21.7998C9.64598 21.7997 6.77347 20.3219 4.92657 17.8691C3.65275 16.1773 2.95001 14.1368 2.95001 12C2.95012 6.60833 7.35814 2.2003 12.7498 2.2002ZM12.7498 3.7998C8.2418 3.79991 4.54973 7.49198 4.54962 12C4.54962 13.7844 5.1368 15.4887 6.2049 16.9072C7.75386 18.9643 10.1562 20.2001 12.7498 20.2002C17.258 20.2002 20.95 16.5082 20.95 12C20.9499 7.49192 17.2579 3.7998 12.7498 3.7998ZM7.94122 7.19141C10.5967 4.53592 14.9028 4.53602 17.5584 7.19141C20.214 9.84697 20.214 14.153 17.5584 16.8086C14.9028 19.4642 10.5968 19.4642 7.94122 16.8086C5.28583 14.153 5.28571 9.84691 7.94122 7.19141ZM16.2449 8.14941C14.204 6.29436 11.0441 6.35226 9.07306 8.32324C7.04239 10.3539 7.0425 13.646 9.07306 15.6768C11.1038 17.7075 14.3958 17.7075 16.4266 15.6768C18.4573 13.646 18.4573 10.354 16.4266 8.32324L16.2449 8.14941ZM13.3611 15.3496H11.8611V13.8496H13.3611V15.3496ZM12.6619 8.40039C14.0532 8.40058 15.1802 9.52816 15.1805 10.9189C15.1805 12.2541 14.1407 13.3473 12.827 13.4326L12.6619 13.4385H11.8611V11.8389H12.6619C13.1689 11.8387 13.5809 11.426 13.5809 10.9189C13.5806 10.4117 13.1694 10.0002 12.6619 10C12.2087 10.0002 11.8316 10.3317 11.7606 10.7705L11.7488 10.8828L11.7166 11.6816L10.118 11.6172L10.1502 10.8184C10.2046 9.46997 11.3094 8.40062 12.6619 8.40039Z" fill="white"/>
</svg>
