<svg width="42" height="14" viewBox="0 0 42 14" fill="none" xmlns="http://www.w3.org/2000/svg">
<path d="M20.4753 3.19141C21.0298 3.19142 21.5385 3.31542 22.0016 3.56543L22.197 3.68164C22.7115 4.00816 23.1177 4.45975 23.4167 5.03906C23.7148 5.61753 23.864 6.27398 23.864 7.00879C23.8639 7.74357 23.7166 8.40204 23.4225 8.98535C23.1285 9.56784 22.7272 10.0231 22.2184 10.3496C21.7088 10.6753 21.1449 10.8379 20.53 10.8379C20.0893 10.8378 19.6733 10.7484 19.2829 10.5693C18.8935 10.3904 18.5699 10.1725 18.3132 9.91504V12.6143C18.3132 12.8531 18.2342 13.0535 18.0788 13.2139C17.9224 13.3743 17.725 13.4551 17.486 13.4551C17.2471 13.455 17.0496 13.3762 16.8932 13.2207C16.7378 13.0644 16.6599 12.8628 16.6599 12.6143V4.16992C16.6599 3.93095 16.7377 3.73072 16.8932 3.57031C17.0496 3.40994 17.2471 3.32916 17.486 3.3291C17.725 3.3291 17.9232 3.40989 18.0788 3.57031C18.2342 3.73151 18.3132 3.93102 18.3132 4.16992V4.22461C18.5343 3.94926 18.8416 3.7075 19.236 3.50098C19.6313 3.29453 20.0436 3.19141 20.4753 3.19141ZM39.0075 3.19043C39.4758 3.19043 39.9454 3.27697 40.4138 3.45117C40.8819 3.62617 41.2488 3.88423 41.5153 4.22363C41.6344 4.37026 41.694 4.53567 41.694 4.71875C41.694 4.93022 41.6065 5.10445 41.4323 5.24219C41.3027 5.34418 41.1563 5.39355 40.9919 5.39355C40.7893 5.39355 40.6246 5.32999 40.4958 5.20117C40.3305 4.99943 40.1169 4.83785 39.8552 4.71875C39.5936 4.6005 39.2979 4.54106 38.9675 4.54102C38.27 4.54102 37.9207 4.79328 37.9206 5.29785C37.9206 5.5003 37.9853 5.66317 38.114 5.78711C38.2411 5.91105 38.4046 6.00828 38.6022 6.07715C38.7991 6.14601 39.078 6.23077 39.4352 6.33203C39.9319 6.46896 40.3449 6.61214 40.6755 6.75879C41.0067 6.90543 41.2863 7.1307 41.5163 7.43359C41.7455 7.73654 41.86 8.13616 41.86 8.63184C41.86 9.08232 41.7264 9.47511 41.4606 9.81055C41.1941 10.1458 40.8522 10.4011 40.4343 10.5752C40.0162 10.7493 39.5869 10.8369 39.1462 10.8369C38.5401 10.8369 37.9753 10.7367 37.4518 10.5342C36.9284 10.3324 36.5012 10.0061 36.1706 9.55566C36.0873 9.44553 36.0475 9.30769 36.0475 9.14258C36.0476 8.90373 36.1662 8.70233 36.405 8.53711C36.5329 8.45374 36.6658 8.41316 36.8034 8.41309C36.9962 8.41309 37.1802 8.50061 37.3552 8.6748C37.6305 8.95986 37.9177 9.16988 38.2165 9.30762C38.5146 9.44534 38.8755 9.51463 39.2975 9.51465C40.0137 9.48711 40.3717 9.21649 40.3718 8.70215C40.3718 8.43558 40.2496 8.23247 40.0065 8.09473C39.7635 7.95784 39.3843 7.81933 38.8708 7.68164C38.3378 7.53504 37.9044 7.38781 37.569 7.24121C37.2336 7.09456 36.9439 6.87043 36.7009 6.57227C36.4571 6.27416 36.3357 5.87255 36.3356 5.36719C36.3356 4.92654 36.4619 4.54326 36.7145 4.2168C36.9673 3.89109 37.2984 3.63804 37.7067 3.45898C38.115 3.28001 38.5393 3.19044 39.0075 3.19043ZM3.99872 0.609375C4.50023 0.609375 4.90689 1.01527 4.90692 1.51758V3.36133H6.86493C7.36711 3.36136 7.7739 3.7682 7.77411 4.26953C7.77411 4.77104 7.36724 5.1777 6.86493 5.17773L6.86395 5.17871H4.90692V7.78027C4.90717 8.4639 5.46348 9.01953 6.14716 9.01953C6.64943 9.01961 7.05634 9.42625 7.05634 9.92773C7.05633 10.4292 6.64943 10.8359 6.14716 10.8359C4.46198 10.8359 3.09067 9.46525 3.09052 7.7793V5.17871H1.13251C0.630167 5.17871 0.223328 4.77187 0.223328 4.26953C0.223569 3.7674 0.630316 3.36133 1.13251 3.36133H3.08954V1.51758C3.08957 1.01616 3.49733 0.609517 3.99872 0.609375ZM15.2595 3.32812C15.7059 3.32812 16.0671 3.68931 16.0671 4.13574V4.16895C16.0669 4.61524 15.705 4.97656 15.2595 4.97656H15.0075V7.66797C15.0075 8.65969 14.7343 9.43623 14.1882 9.99609C13.6421 10.5557 12.8625 10.8359 11.8532 10.8359C10.844 10.8359 10.068 10.5557 9.52606 9.99609C8.98402 9.43623 8.71356 8.65969 8.71356 7.66797V4.16895C8.71356 3.93006 8.79157 3.73052 8.94696 3.56934C9.10333 3.40972 9.30169 3.32812 9.54071 3.32812C9.77955 3.32821 9.97703 3.409 10.1325 3.56934C10.288 3.73056 10.3669 3.92997 10.3669 4.16895V7.66797C10.3669 8.22784 10.491 8.64442 10.739 8.91504C10.9869 9.18631 11.3488 9.32126 11.8542 9.32129C12.3598 9.32129 12.7363 9.18565 12.985 8.91504C13.2329 8.64442 13.3561 8.22771 13.3561 7.66797V4.17578L13.3552 4.16992V4.13672C13.3552 4.03231 13.3783 3.9331 13.4147 3.84082C13.4949 3.63829 13.6513 3.47506 13.8522 3.3916L13.9431 3.37305C14.0143 3.35198 14.084 3.32813 14.1618 3.32812H15.2595ZM34.9792 3.32812C35.4255 3.3283 35.7868 3.68941 35.7868 4.13574V4.16895C35.7866 4.61514 35.4246 4.97639 34.9792 4.97656H34.7097V7.66797C34.7097 8.65969 34.4372 9.43623 33.8903 9.99609C33.3442 10.5557 32.5665 10.8359 31.5563 10.8359C30.5462 10.8359 29.7694 10.5557 29.2282 9.99609C28.6862 9.43623 28.4157 8.65969 28.4157 7.66797V4.16895C28.4157 3.93006 28.4929 3.73052 28.6491 3.56934C28.8055 3.40972 29.0029 3.32812 29.2419 3.32812C29.4808 3.32817 29.6775 3.40896 29.8347 3.56934C29.991 3.73056 30.069 3.92997 30.069 4.16895V7.66797C30.069 8.22784 30.1932 8.64442 30.4411 8.91504C30.689 9.18633 31.0535 9.32129 31.5573 9.32129C32.0613 9.32128 32.4383 9.18565 32.6862 8.91504C32.9341 8.64442 33.0583 8.22777 33.0583 7.66797V4.16895C33.0583 3.93007 33.1355 3.73052 33.2917 3.56934C33.4407 3.41707 33.6297 3.34132 33.8532 3.33398L33.8815 3.32812H34.9792ZM27.0349 0.62207C27.4811 0.622128 27.8422 0.984292 27.8425 1.42969V1.46289C27.8425 1.90929 27.4812 2.27143 27.0349 2.27148H26.7819V9.97656C26.7819 10.2155 26.702 10.4158 26.5417 10.5762C26.3813 10.7373 26.1712 10.8173 25.9421 10.8174C25.7128 10.8174 25.5194 10.7374 25.363 10.5762C25.2067 10.4158 25.1296 10.2155 25.1296 9.97656V1.43066C25.1297 0.984347 25.4908 0.623047 25.9372 0.623047L27.0349 0.62207ZM20.2682 4.70703C19.6713 4.70712 19.1842 4.92458 18.8083 5.36035C18.4316 5.7962 18.2439 6.3458 18.2438 7.00684C18.2438 7.66797 18.4315 8.2194 18.8083 8.66016C19.1842 9.10083 19.681 9.32218 20.2682 9.32227C20.8555 9.32227 21.3378 9.10073 21.7145 8.66016C22.0913 8.21939 22.28 7.66879 22.28 7.00684C22.2799 6.34499 22.0932 5.7962 21.7214 5.36035C21.3495 4.92457 20.8653 4.70703 20.2682 4.70703ZM32.6149 0.623047C32.8625 0.623075 33.0486 0.686944 33.1725 0.81543C33.2973 0.943402 33.3543 1.10906 33.3454 1.31152C33.326 1.52299 33.2391 1.72119 33.0827 1.9043L32.0358 3.06152C31.8892 3.217 31.6831 3.29585 31.4167 3.2959C31.3487 3.2959 31.2755 3.2722 31.1989 3.22559L31.1188 3.1709C31.0138 3.08831 30.9664 2.97835 30.9753 2.84082C30.9753 2.75825 31.0033 2.67154 31.0583 2.58008L31.8571 1.17383C31.9487 1.00859 32.0602 0.875672 32.1882 0.774414C32.3161 0.673303 32.4587 0.623047 32.6149 0.623047Z" fill="white"/>
</svg>
