<svg width="170" height="22" viewBox="0 0 170 22" fill="none" xmlns="http://www.w3.org/2000/svg">
<g clip-path="url(#clip0_4768_8262)">
<path d="M5.77003 13.9294L3.64075 8.1123L4.93588 8.1123L6.45053 12.4148L7.89931 8.1123L9.17249 8.1123L7.0432 13.9294L5.77003 13.9294Z" fill="white"/>
<path d="M12.07 13.9294L12.07 8.1123L13.2773 8.1123L13.2773 13.9294L12.07 13.9294Z" fill="white"/>
<path d="M19.4896 11.8L19.4896 10.8122L22.0798 10.8122L22.0798 13.1391C21.8384 13.3805 21.4652 13.6001 20.9823 13.7757C20.4993 13.9513 20.0164 14.0391 19.5335 14.0391C19.0506 14.0391 18.3701 13.9074 17.9091 13.6659C17.4481 13.4025 17.0969 13.0513 16.8554 12.5683C16.6359 12.0854 16.5042 11.5805 16.5042 11.0098C16.5042 10.4391 16.6359 9.86832 16.8993 9.3854C17.1627 8.92442 17.5359 8.55125 18.0408 8.30978C18.414 8.11222 18.8969 8.02441 19.4676 8.02441C20.0384 8.02441 20.7847 8.17807 21.2018 8.48539C21.6189 8.79271 21.8823 9.20979 22.014 9.75857L20.8286 9.97808C20.7408 9.69271 20.5872 9.4732 20.3457 9.29759C20.1262 9.12198 19.8188 9.05613 19.4896 9.05613C18.9627 9.05613 18.5457 9.23174 18.2384 9.53905C17.931 9.86832 17.7774 10.3513 17.7774 10.9878C17.7774 11.6244 17.931 12.1952 18.2384 12.5464C18.5457 12.8976 18.9628 13.0732 19.4676 13.0732C19.9725 13.0732 19.9725 13.0293 20.214 12.9196C20.4554 12.8318 20.6749 12.7 20.8725 12.5683L20.8725 11.822L19.4896 11.822" fill="white"/>
<path d="M25.5701 13.864L25.5701 8.04687L26.7775 8.04688L26.7775 13.864L25.5701 13.864Z" fill="white"/>
<path d="M30.1579 13.9294L30.1579 8.15625L31.3433 8.15625L31.3433 12.9416L34.3506 12.9416L34.3506 13.9294L30.1579 13.9294Z" fill="white"/>
<path d="M42.4068 13.9299L41.0897 13.9299L40.5628 12.5908L38.1921 12.5908L37.7092 13.9299L36.436 13.9299L38.7628 8.09082L40.036 8.09082L42.4287 13.9299M40.2116 11.625L39.3994 9.4518L38.5872 11.625L40.2116 11.625Z" fill="white"/>
<path d="M45.041 8.1123L47.2361 8.1123C47.741 8.1123 48.1142 8.15621 48.3776 8.22206C48.7288 8.30987 49.0361 8.50743 49.2776 8.74889C49.5191 9.01231 49.7166 9.31963 49.8483 9.6928C49.98 10.066 50.0459 10.527 50.0459 11.0757C50.0459 11.6245 49.98 11.9757 49.8703 12.327C49.7166 12.744 49.5191 13.0953 49.2337 13.3587C49.0142 13.5562 48.7508 13.7099 48.3995 13.8197C48.1361 13.9075 47.7849 13.9514 47.3239 13.9514L45.0629 13.9514L45.0629 8.1123M46.2483 9.10011L46.2483 12.9635L47.1483 12.9635C47.4776 12.9635 47.7191 12.9635 47.8727 12.9196C48.0703 12.8757 48.2239 12.7879 48.3556 12.6782C48.4874 12.5684 48.5971 12.3709 48.663 12.1074C48.7508 11.844 48.7947 11.4928 48.7947 11.0318C48.7947 10.5709 48.7508 10.2416 48.663 10.0001C48.5752 9.75865 48.4654 9.56109 48.3117 9.42938C48.1581 9.29768 47.9825 9.20987 47.763 9.16597C47.5873 9.12207 47.2581 9.10011 46.7751 9.10011L46.2483 9.10011Z" fill="white"/>
<path d="M53.119 11.0537C53.119 10.461 53.2068 9.95609 53.3824 9.56096C53.5141 9.2756 53.7117 8.99023 53.9312 8.74876C54.1727 8.5073 54.4141 8.33169 54.6995 8.22193C55.0727 8.06827 55.4897 7.98047 55.9727 7.98047C56.8507 7.98047 57.5532 8.24388 58.08 8.77072C58.6068 9.29755 58.8702 10.0439 58.8702 10.9878C58.8702 11.9317 58.6068 12.6561 58.08 13.2049C57.5532 13.7317 56.8507 13.9951 55.9946 13.9951C55.1385 13.9951 54.4141 13.7317 53.8873 13.2049C53.3605 12.6781 53.097 11.9537 53.097 11.0317M54.3702 11.0098C54.3702 11.6683 54.5239 12.1732 54.8312 12.5024C55.1385 12.8537 55.5336 13.0073 56.0166 13.0073C56.4995 13.0073 56.8946 12.8317 57.2019 12.5024C57.5092 12.1732 57.6629 11.6463 57.6629 10.9878C57.6629 10.3293 57.5093 9.82438 57.2239 9.49511C56.9166 9.16584 56.5214 9.01218 56.0385 9.01218C55.5556 9.01218 55.1385 9.18779 54.8312 9.51706C54.5239 9.84633 54.3702 10.3512 54.3702 11.0317L54.3702 11.0098Z" fill="white"/>
<path d="M64.5995 8.20061L65.1703 8.1567C65.1922 8.37622 65.2581 8.55183 65.3459 8.70549C65.4337 8.85915 65.5874 8.9689 65.8069 9.05671C66.0044 9.14451 66.2459 9.18842 66.4874 9.18842C66.7288 9.18842 66.9044 9.14451 67.08 9.07866C67.2557 9.0128 67.3874 8.925 67.4752 8.81524C67.563 8.70549 67.6069 8.57378 67.6069 8.44207C67.6069 8.31036 67.563 8.17865 67.4752 8.0689C67.3874 7.95914 67.2557 7.87134 67.08 7.80548C66.9483 7.76158 66.6849 7.69573 66.2678 7.58597C65.8508 7.49816 65.5654 7.38841 65.3898 7.3006C65.1703 7.19084 65.0166 7.05914 64.9069 6.88353C64.7971 6.70792 64.7532 6.5323 64.7532 6.33474C64.7532 6.13718 64.8191 5.89572 64.9508 5.69815C65.0825 5.50059 65.28 5.34693 65.5215 5.25913C65.763 5.14937 66.0483 5.10547 66.3556 5.10547C66.663 5.10547 66.9922 5.17132 67.2337 5.25913C67.4971 5.36888 67.6947 5.52254 67.8264 5.72011C67.9581 5.93962 68.0459 6.15913 68.0459 6.42255L67.4752 6.46645C67.4532 6.18108 67.3435 5.96157 67.1678 5.82986C66.9922 5.6762 66.7288 5.61035 66.3776 5.61035C66.0264 5.61035 65.763 5.6762 65.5874 5.80791C65.4337 5.93962 65.3459 6.09328 65.3459 6.26889C65.3459 6.4445 65.4117 6.55426 65.5215 6.66401C65.6313 6.77377 65.9386 6.88353 66.4215 6.97133C66.9044 7.08109 67.2337 7.16889 67.4093 7.2567C67.6727 7.36646 67.8703 7.52011 68.002 7.71768C68.1337 7.89329 68.1776 8.1128 68.1776 8.35427C68.1776 8.59573 68.1118 8.81524 67.9801 9.03476C67.8483 9.23232 67.6508 9.40793 67.3874 9.51769C67.1239 9.62744 66.8386 9.6933 66.5093 9.6933C66.18 9.6933 65.763 9.62744 65.4776 9.51769C65.1922 9.40793 64.9947 9.23232 64.8191 8.99085C64.6654 8.74939 64.5776 8.48597 64.5776 8.17865" fill="white"/>
<path d="M71.9533 5.17137L72.546 5.17137L72.546 7.73967C72.546 8.1787 72.5021 8.55187 72.3924 8.81529C72.2826 9.0787 72.107 9.29821 71.8436 9.45187C71.5802 9.60553 71.2289 9.69334 70.7899 9.69334C70.3509 9.69334 70.0216 9.62748 69.7582 9.47382C69.4948 9.32017 69.2972 9.1226 69.1875 8.83724C69.0777 8.57382 69.0119 8.20065 69.0119 7.71772L69.0119 5.14941L69.6045 5.14941L69.6045 7.71772C69.6045 8.11284 69.6484 8.39821 69.7143 8.57382C69.7802 8.74943 69.9119 8.90309 70.0875 8.9909C70.2631 9.0787 70.4826 9.14456 70.746 9.14456C71.185 9.14456 71.4924 9.0348 71.6899 8.85919C71.8655 8.66163 71.9753 8.28845 71.9753 7.71772L71.9753 5.14941" fill="white"/>
<path d="M73.5558 9.62702L73.5558 5.1709L75.246 5.1709C75.5534 5.1709 75.7729 5.1709 75.9265 5.2148C76.1461 5.2587 76.3436 5.32456 76.4753 5.41236C76.629 5.52212 76.7387 5.65383 76.8265 5.85139C76.9143 6.027 76.9583 6.24651 76.9583 6.46603C76.9583 6.8392 76.8485 7.16847 76.5851 7.43189C76.3436 7.6953 75.9046 7.82701 75.268 7.82701L74.1046 7.82701L74.1046 9.64897L73.5119 9.64897M74.1485 7.27823L75.3119 7.27823C75.707 7.27823 75.9704 7.21237 76.1241 7.05871C76.2778 6.90505 76.3656 6.72944 76.3656 6.46603C76.3656 6.20261 76.3217 6.11481 76.2119 5.9831C76.1241 5.85139 75.9924 5.76358 75.8387 5.71968C75.729 5.69773 75.5534 5.67578 75.2899 5.67578L74.1265 5.67578L74.1265 7.27823L74.1485 7.27823Z" fill="white"/>
<path d="M77.7703 9.62702L77.7703 5.1709L81.0191 5.1709L81.0191 5.69773L78.363 5.69773L78.363 7.05871L80.8655 7.05871L80.8655 7.58554L78.363 7.58554L78.363 9.10019L81.1289 9.10019L81.1289 9.62702L77.7703 9.62702Z" fill="white"/>
<path d="M81.9631 9.62702L81.9631 5.1709L83.9606 5.1709C84.3558 5.1709 84.6631 5.2148 84.8826 5.28066C85.1021 5.36846 85.2558 5.50017 85.3875 5.69773C85.5192 5.89529 85.5631 6.13676 85.5631 6.37822C85.5631 6.61969 85.4533 6.94896 85.2558 7.16847C85.0363 7.38798 84.7289 7.51969 84.2899 7.58554C84.4436 7.6514 84.5753 7.7392 84.6411 7.80506C84.8167 7.95872 84.9704 8.15628 85.1241 8.39774L85.9143 9.60507L85.168 9.60507L84.5753 8.68311C84.3997 8.4197 84.246 8.22213 84.1362 8.06847C84.0265 7.93677 83.9167 7.82701 83.8289 7.76116C83.7411 7.6953 83.6533 7.67335 83.5655 7.6514C83.4997 7.6514 83.3899 7.6514 83.2362 7.6514L82.5558 7.6514L82.5558 9.62702L81.9631 9.62702ZM82.5558 7.12457L83.8509 7.12457C84.1143 7.12457 84.3338 7.10262 84.4875 7.03676C84.6411 6.99286 84.7509 6.8831 84.8387 6.77335C84.9265 6.64164 84.9484 6.50993 84.9484 6.37822C84.9484 6.15871 84.8826 5.9831 84.707 5.85139C84.5533 5.71968 84.3119 5.65383 83.9826 5.65383L82.5558 5.65383L82.5558 7.12457Z" fill="white"/>
<path d="M86.6167 9.62702L86.6167 5.1709L87.2094 5.1709L87.2094 9.62702L86.6167 9.62702Z" fill="white"/>
<path d="M88.2412 9.62702L88.2412 5.1709L88.8559 5.1709L91.2266 8.66116L91.2266 5.1709L91.7974 5.1709L91.7974 9.62702L91.1827 9.62702L88.812 6.11481L88.812 9.62702L88.2412 9.62702Z" fill="white"/>
<path d="M93.9486 9.62702L93.9486 5.69773L92.4778 5.69773L92.4778 5.1709L96.0339 5.1709L96.0339 5.69773L94.5632 5.69773L94.5632 9.62702L93.9486 9.62702Z" fill="white"/>
<path d="M96.6705 9.62702L96.6705 5.1709L99.9412 5.1709L99.9412 5.69773L97.2632 5.69773L97.2632 7.05871L99.7656 7.05871L99.7656 7.58554L97.2632 7.58554L97.2632 9.10019L100.029 9.10019L100.029 9.62702L96.6705 9.62702Z" fill="white"/>
<path d="M100.863 9.62702L100.863 5.1709L101.456 5.1709L103.849 8.66116L103.849 5.1709L104.419 5.1709L104.419 9.62702L103.805 9.62702L101.434 6.11481L101.434 9.62702L100.863 9.62702Z" fill="white"/>
<path d="M105.407 9.62702L105.407 5.1709L106.966 5.1709C107.317 5.1709 107.58 5.1709 107.778 5.23675C108.041 5.30261 108.261 5.41236 108.436 5.56602C108.678 5.76358 108.853 6.027 108.963 6.33432C109.073 6.64164 109.139 6.99286 109.139 7.38798C109.139 7.78311 109.095 8.02457 109.007 8.28799C108.919 8.5514 108.831 8.77092 108.7 8.94653C108.568 9.12214 108.436 9.25385 108.283 9.34165C108.129 9.45141 107.953 9.51726 107.734 9.56116C107.514 9.60507 107.273 9.62702 107.01 9.62702L105.385 9.62702M106 9.10019L106.966 9.10019C107.273 9.10019 107.492 9.07824 107.668 9.01238C107.844 8.96848 107.975 8.88067 108.063 8.79287C108.217 8.66116 108.327 8.4636 108.392 8.22213C108.48 7.98067 108.502 7.6953 108.502 7.36603C108.502 7.03676 108.414 6.53188 108.283 6.29042C108.129 6.04895 107.931 5.87334 107.712 5.78554C107.558 5.71968 107.295 5.69773 106.944 5.69773L106 5.69773L106 9.10019Z" fill="white"/>
<path d="M109.973 9.62702L109.973 5.1709L113.244 5.1709L113.244 5.69773L110.566 5.69773L110.566 7.05871L113.068 7.05871L113.068 7.58554L110.566 7.58554L110.566 9.10019L113.332 9.10019L113.332 9.62702L109.973 9.62702Z" fill="white"/>
<path d="M114.166 9.62702L114.166 5.1709L114.78 5.1709L117.151 8.66116L117.151 5.1709L117.722 5.1709L117.722 9.62702L117.107 9.62702L114.736 6.11481L114.736 9.62702L114.166 9.62702Z" fill="white"/>
<path d="M121.936 8.0689L122.529 8.22256C122.397 8.70549 122.178 9.07866 121.849 9.34207C121.519 9.60549 121.124 9.71525 120.663 9.71525C120.202 9.71525 119.785 9.60549 119.478 9.42988C119.171 9.23232 118.951 8.94695 118.775 8.57378C118.622 8.20061 118.534 7.80548 118.534 7.36645C118.534 6.92743 118.622 6.4884 118.797 6.15913C118.973 5.80791 119.236 5.54449 119.566 5.36888C119.895 5.19327 120.268 5.10547 120.663 5.10547C121.058 5.10547 121.497 5.21523 121.805 5.45669C122.112 5.6762 122.332 6.00547 122.441 6.42255L121.849 6.55426C121.739 6.22499 121.585 6.00547 121.388 5.85181C121.19 5.69815 120.949 5.6323 120.641 5.6323C120.334 5.6323 120.005 5.72011 119.763 5.87376C119.522 6.04938 119.368 6.26889 119.28 6.5323C119.193 6.81767 119.127 7.10304 119.127 7.38841C119.127 7.67377 119.193 8.09085 119.302 8.37622C119.412 8.66158 119.588 8.85915 119.829 9.0128C120.071 9.14451 120.312 9.21037 120.597 9.21037C120.883 9.21037 121.212 9.12256 121.454 8.925C121.695 8.72744 121.849 8.44207 121.936 8.0689Z" fill="white"/>
<path d="M123.363 9.62702L123.363 5.1709L123.956 5.1709L123.956 9.62702L123.363 9.62702Z" fill="white"/>
<path d="M124.527 9.62702L126.261 5.1709L126.897 5.1709L128.741 9.62702L128.061 9.62702L127.534 8.28799L125.646 8.28799L125.163 9.62702L124.527 9.62702ZM125.822 7.78311L127.358 7.78311L126.875 6.55383C126.722 6.18066 126.634 5.87334 126.568 5.63188C126.502 5.91724 126.436 6.20261 126.327 6.48798L125.822 7.80506L125.822 7.78311Z" fill="white"/>
<path d="M130.651 9.62702L130.651 5.1709L133.702 5.1709L133.702 5.69773L131.244 5.69773L131.244 7.08066L133.373 7.08066L133.373 7.6075L131.244 7.6075L131.244 9.62702L130.651 9.62702Z" fill="white"/>
<path d="M134.58 9.62702L134.58 5.1709L135.173 5.1709L135.173 9.62702L134.58 9.62702Z" fill="white"/>
<path d="M136.227 9.62702L136.227 5.1709L136.841 5.1709L139.19 8.66116L139.19 5.1709L139.783 5.1709L139.783 9.62702L139.168 9.62702L136.797 6.11481L136.797 9.62702L136.227 9.62702Z" fill="white"/>
<path d="M140.288 9.62702L142.022 5.1709L142.659 5.1709L144.502 9.62702L143.822 9.62702L143.295 8.28799L141.407 8.28799L140.902 9.62702L140.266 9.62702M141.583 7.78311L143.12 7.78311L142.659 6.55383C142.505 6.18066 142.417 5.87334 142.329 5.63188C142.263 5.91724 142.198 6.20261 142.088 6.48798L141.583 7.80506L141.583 7.78311Z" fill="white"/>
<path d="M144.963 9.62702L144.963 5.1709L145.578 5.1709L147.949 8.66116L147.949 5.1709L148.52 5.1709L148.52 9.62702L147.905 9.62702L145.556 6.11481L145.556 9.62702L144.963 9.62702Z" fill="white"/>
<path d="M152.756 8.0689L153.349 8.22256C153.217 8.70549 152.998 9.07866 152.668 9.34207C152.339 9.60549 151.944 9.71525 151.483 9.71525C151.022 9.71525 150.605 9.60549 150.298 9.42988C149.99 9.23232 149.771 8.94695 149.595 8.57378C149.442 8.20061 149.354 7.80548 149.354 7.36645C149.354 6.92743 149.442 6.4884 149.617 6.15913C149.793 5.80791 150.056 5.54449 150.385 5.36888C150.715 5.19327 151.088 5.10547 151.483 5.10547C151.878 5.10547 152.317 5.21523 152.624 5.45669C152.932 5.6762 153.151 6.00547 153.261 6.42255L152.668 6.55426C152.559 6.22499 152.405 6.00547 152.207 5.85181C152.01 5.69815 151.768 5.6323 151.461 5.6323C151.154 5.6323 150.824 5.72011 150.583 5.87376C150.342 6.04938 150.188 6.26889 150.1 6.5323C150.012 6.81767 149.968 7.10304 149.968 7.38841C149.968 7.67377 150.012 8.09085 150.144 8.37622C150.254 8.66158 150.429 8.85915 150.671 9.0128C150.912 9.14451 151.154 9.21037 151.439 9.21037C151.724 9.21037 152.054 9.12256 152.295 8.925C152.537 8.72744 152.69 8.44207 152.756 8.0689Z" fill="white"/>
<path d="M154.183 9.62702L154.183 5.1709L154.776 5.1709L154.776 9.62702L154.183 9.62702Z" fill="white"/>
<path d="M155.851 9.62702L155.851 5.1709L159.1 5.1709L159.1 5.69773L156.444 5.69773L156.444 7.05871L158.946 7.05871L158.946 7.58554L156.444 7.58554L156.444 9.10019L159.21 9.10019L159.21 9.62702L155.851 9.62702Z" fill="white"/>
<path d="M160.044 9.62702L160.044 5.1709L162.042 5.1709C162.437 5.1709 162.744 5.2148 162.964 5.28066C163.183 5.36846 163.337 5.50017 163.468 5.69773C163.6 5.89529 163.644 6.13676 163.644 6.37822C163.644 6.61969 163.534 6.94896 163.337 7.16847C163.139 7.38798 162.81 7.51969 162.371 7.58554C162.525 7.6514 162.656 7.7392 162.722 7.80506C162.898 7.95872 163.051 8.15628 163.227 8.39774L164.017 9.60507L163.271 9.60507L162.678 8.68311C162.503 8.4197 162.371 8.22213 162.239 8.06847C162.129 7.93677 162.02 7.82701 161.932 7.76116C161.844 7.6953 161.756 7.67335 161.668 7.6514C161.603 7.6514 161.493 7.6514 161.339 7.6514L160.659 7.6514L160.659 9.62702L160.066 9.62702M160.637 7.12457L161.91 7.12457C162.173 7.12457 162.393 7.10262 162.546 7.03676C162.7 6.99286 162.81 6.8831 162.898 6.77335C162.985 6.64164 163.007 6.50993 163.007 6.37822C163.007 6.15871 162.92 5.9831 162.766 5.85139C162.612 5.71968 162.371 5.65383 162.042 5.65383L160.615 5.65383L160.615 7.12457L160.637 7.12457Z" fill="white"/>
<path d="M164.083 9.62702L165.817 5.1709L166.454 5.1709L168.298 9.62702L167.617 9.62702L167.09 8.28799L165.203 8.28799L164.698 9.62702L164.061 9.62702M165.4 7.78311L166.937 7.78311L166.454 6.55383C166.322 6.18066 166.212 5.87334 166.125 5.63188C166.059 5.91724 165.993 6.20261 165.883 6.48798L165.4 7.80506L165.4 7.78311Z" fill="white"/>
<path d="M94.9144 16.586L94.9144 12.1299L96.4729 12.1299C96.8242 12.1299 97.0876 12.1299 97.2851 12.1957C97.5486 12.2616 97.7681 12.3713 97.9437 12.525C98.1851 12.7226 98.3608 12.986 98.4705 13.2933C98.5803 13.6006 98.6461 13.9518 98.6461 14.347C98.6461 14.7421 98.6022 14.9836 98.5144 15.247C98.4266 15.5104 98.3388 15.7299 98.2071 15.9055C98.0754 16.0811 97.9437 16.2128 97.79 16.3006C97.6364 16.3884 97.4607 16.4762 97.2632 16.5201C97.0437 16.5641 96.8022 16.586 96.5388 16.586L94.9144 16.586ZM95.5071 16.0592L96.4729 16.0592C96.7583 16.0592 96.9998 16.0372 97.1754 15.9714C97.351 15.9275 97.4827 15.8397 97.5705 15.7519C97.7242 15.6201 97.8339 15.4226 97.8998 15.1811C97.9876 14.9397 98.0095 14.6543 98.0095 14.325C98.0095 13.9957 97.9437 13.4909 97.7681 13.2494C97.6144 13.0079 97.4168 12.8323 97.1973 12.7445C97.0437 12.6787 96.7803 12.6567 96.429 12.6567L95.4851 12.6567L95.4851 16.0592L95.5071 16.0592Z" fill="white"/>
<path d="M99.4584 16.586L99.4584 12.1299L102.729 12.1299L102.729 12.6567L100.073 12.6567L100.073 14.0177L102.554 14.0177L102.554 14.5445L100.073 14.5445L100.073 16.0592L102.839 16.0592L102.839 16.586L99.4584 16.586Z" fill="white"/>
<path d="M108.634 15.0274L109.227 15.181C109.095 15.664 108.875 16.0371 108.546 16.2786C108.217 16.542 107.822 16.6518 107.361 16.6518C106.9 16.6518 106.483 16.564 106.175 16.3664C105.868 16.1688 105.648 15.8835 105.473 15.5103C105.319 15.1371 105.231 14.742 105.231 14.303C105.231 13.864 105.319 13.4249 105.495 13.0957C105.67 12.7444 105.934 12.481 106.263 12.3054C106.592 12.1298 106.966 12.042 107.361 12.042C107.756 12.042 108.195 12.1517 108.502 12.3713C108.809 12.5908 109.029 12.92 109.139 13.3371L108.546 13.4688C108.436 13.1396 108.283 12.8981 108.085 12.7664C107.888 12.6127 107.646 12.5469 107.339 12.5469C107.031 12.5469 106.702 12.6347 106.461 12.7883C106.219 12.9639 106.066 13.1835 105.978 13.4469C105.89 13.7322 105.846 14.0176 105.846 14.303C105.846 14.5883 105.89 15.0054 106.022 15.2908C106.131 15.5762 106.307 15.7957 106.548 15.9274C106.79 16.0591 107.031 16.1469 107.317 16.1469C107.602 16.1469 107.931 16.0371 108.173 15.8615C108.414 15.664 108.568 15.3786 108.634 15.0054" fill="white"/>
<path d="M109.775 14.4127C109.775 13.6664 109.973 13.0957 110.368 12.6786C110.763 12.2615 111.29 12.042 111.927 12.042C112.563 12.042 112.717 12.1298 113.046 12.3274C113.375 12.5249 113.639 12.7883 113.814 13.1396C113.99 13.4908 114.078 13.8859 114.078 14.3469C114.078 14.8079 113.99 15.203 113.793 15.5542C113.617 15.9054 113.353 16.1908 113.002 16.3664C112.673 16.542 112.3 16.6298 111.905 16.6298C111.51 16.6298 111.093 16.5201 110.763 16.3225C110.434 16.1249 110.171 15.8396 110.017 15.4884C109.841 15.1371 109.753 14.764 109.753 14.3688M110.39 14.4127C110.39 14.9615 110.544 15.3786 110.829 15.6859C111.114 15.9932 111.488 16.1469 111.927 16.1469C112.366 16.1469 112.739 15.9932 113.046 15.6859C113.332 15.3786 113.485 14.9396 113.485 14.3469C113.485 13.7542 113.419 13.6664 113.288 13.403C113.156 13.1396 112.98 12.92 112.739 12.7664C112.497 12.6127 112.234 12.5469 111.927 12.5469C111.51 12.5469 111.136 12.6786 110.829 12.9859C110.522 13.2713 110.368 13.7542 110.368 14.4127L110.39 14.4127Z" fill="white"/>
<path d="M114.846 16.586L114.846 12.1299L115.439 12.1299L115.439 16.0592L117.656 16.0592L117.656 16.586L114.846 16.586Z" fill="white"/>
<path d="M118.183 14.4127C118.183 13.6664 118.38 13.0957 118.775 12.6786C119.171 12.2615 119.697 12.042 120.334 12.042C120.971 12.042 121.124 12.1298 121.454 12.3274C121.783 12.5249 122.046 12.7883 122.222 13.1396C122.397 13.4908 122.485 13.8859 122.485 14.3469C122.485 14.8079 122.397 15.203 122.2 15.5542C122.024 15.9054 121.761 16.1908 121.41 16.3664C121.08 16.542 120.707 16.6298 120.312 16.6298C119.917 16.6298 119.5 16.5201 119.171 16.3225C118.841 16.1249 118.578 15.8396 118.402 15.4884C118.227 15.1371 118.139 14.764 118.139 14.3688M118.797 14.4127C118.797 14.9615 118.951 15.3786 119.236 15.6859C119.522 15.9932 119.895 16.1469 120.334 16.1469C120.773 16.1469 121.146 15.9932 121.454 15.6859C121.739 15.3786 121.893 14.9396 121.893 14.3469C121.893 13.7542 121.827 13.6664 121.695 13.403C121.563 13.1396 121.388 12.92 121.146 12.7664C120.905 12.6127 120.641 12.5469 120.334 12.5469C119.917 12.5469 119.544 12.6786 119.236 12.9859C118.929 13.2713 118.775 13.7542 118.775 14.4127L118.797 14.4127Z" fill="white"/>
<path d="M123.253 16.586L123.253 12.1299L124.153 12.1299L125.229 15.2909C125.317 15.5762 125.405 15.7958 125.449 15.9494C125.493 15.7958 125.58 15.5543 125.69 15.225L126.766 12.1299L127.578 12.1299L127.578 16.586L127.007 16.586L127.007 12.8543L125.69 16.586L125.141 16.586L123.846 12.7884L123.846 16.586L123.275 16.586" fill="white"/>
<path d="M128.5 16.586L128.5 12.1299L130.19 12.1299C130.541 12.1299 130.805 12.1738 131.024 12.2616C131.244 12.3494 131.397 12.4811 131.507 12.6787C131.617 12.8543 131.683 13.0518 131.683 13.2714C131.683 13.4909 131.639 13.6445 131.529 13.8201C131.419 13.9957 131.266 14.1275 131.046 14.2372C131.332 14.325 131.529 14.4567 131.683 14.6323C131.836 14.8299 131.902 15.0494 131.902 15.3128C131.902 15.5762 131.858 15.7079 131.771 15.8836C131.683 16.0592 131.573 16.2128 131.441 16.3006C131.31 16.4104 131.156 16.4762 130.958 16.5201C130.761 16.5641 130.519 16.586 130.234 16.586L128.522 16.586M129.093 13.9957L130.08 13.9957C130.344 13.9957 130.541 13.9957 130.651 13.9518C130.805 13.9079 130.915 13.8421 131.002 13.7323C131.09 13.6226 131.112 13.4909 131.112 13.3372C131.112 13.1835 131.068 13.0518 131.002 12.9421C130.936 12.8323 130.827 12.7445 130.695 12.7006C130.563 12.6567 130.344 12.6348 130.015 12.6348L129.115 12.6348L129.115 13.9738L129.093 13.9957ZM129.093 16.0592L130.212 16.0592C130.41 16.0592 130.541 16.0592 130.607 16.0592C130.739 16.0372 130.871 15.9933 130.958 15.9494C131.046 15.8836 131.134 15.7958 131.178 15.7079C131.244 15.5982 131.266 15.4665 131.266 15.3348C131.266 15.2031 131.222 15.0275 131.134 14.8957C131.046 14.786 130.936 14.6762 130.783 14.6323C130.629 14.5884 130.41 14.5665 130.124 14.5665L129.071 14.5665L129.071 16.1031L129.093 16.0592Z" fill="white"/>
<path d="M132.824 16.586L132.824 12.1299L133.417 12.1299L133.417 16.586L132.824 16.586Z" fill="white"/>
<path d="M133.988 16.586L135.722 12.1299L136.358 12.1299L138.202 16.586L137.522 16.586L136.995 15.247L135.107 15.247L134.624 16.586L133.988 16.586ZM135.283 14.764L136.819 14.764L136.337 13.5348C136.183 13.1616 136.095 12.8543 136.029 12.6128C135.963 12.8982 135.898 13.1835 135.788 13.4689L135.283 14.786L135.283 14.764Z" fill="white"/>
<path d="M61.7678 4.90786L61.7678 3.04199L1.57729 3.04199L1.57729 4.90785L61.7678 4.90786Z" fill="white"/>
<path d="M61.7678 19.0006L61.7678 17.1348L1.57729 17.1348L1.57729 19.0006L61.7678 19.0006Z" fill="white"/>
</g>
<defs>
<clipPath id="clip0_4768_8262">
<rect width="20.4586" height="169.903" fill="white" transform="translate(169.9 0.802734) rotate(90)"/>
</clipPath>
</defs>
</svg>
