<svg id="logo-prefooter" width="280" data-name="Capa 1" xmlns="http://www.w3.org/2000/svg" xmlns:xlink="http://www.w3.org/1999/xlink" viewBox="0 0 193.29 41.41">
 <defs>
  <style>
   .cls-1{fill:none;}.cls-2{clip-path:url(#clip-path);}.cls-3,.cls-6{fill:#112c46;}.cls-4{fill:#008acc;}.cls-5{fill:#0082c2;}.cls-6{stroke:#112c46;stroke-miterlimit:10;stroke-width:0.25px;}
  </style>
  <clipPath id="clip-path" transform="translate(-2.71 -4.63)">
   <rect class="cls-1" x="2.71" y="4.63" width="193.29" height="37.37">
   </rect>
  </clipPath>
 </defs>
 <g class="cls-2">
  <path class="cls-3" d="M78,27.41a17.39,17.39,0,0,1-2.51.32c-1.78.08-2.12-.66-2.12-3.27s.34-3.36,2.12-3.28c.53,0,1.67.26,2.51.35L78.2,20a25.24,25.24,0,0,0-2.68-.37c-4-.18-4.91,1.49-4.91,4.83s1,5,4.92,4.84A18.76,18.76,0,0,0,78.25,29Z" transform="translate(-2.71 -4.63)">
  </path>
  <path class="cls-3" d="M42.18,23.37v3.91h3c1.41,0,2.09-.38,2.09-2.1S46,23.37,45,23.37Zm0-5.47v3.66H45c1.3,0,1.75-.53,1.75-2s-.44-1.66-2-1.66Zm2.65-1.83c2.89,0,4.61,1.2,4.61,3.5a3.09,3.09,0,0,1-1.24,2.76,3,3,0,0,1,1.72,2.85c0,3-2.1,3.93-4.75,3.93H39.54v-13Z" transform="translate(-2.71 -4.63)">
  </path>
  <path class="cls-3" d="M56.46,24.55a14.19,14.19,0,0,0-1.72.1,1.38,1.38,0,0,0-1.4,1.48,1.32,1.32,0,0,0,1.18,1.47,6.3,6.3,0,0,0,1.94,0Zm-5-4.39a19.23,19.23,0,0,1,3.77-.53c2.61,0,3.8,1.22,3.8,3.11V29a22.56,22.56,0,0,1-5,.2C52,29,50.63,27.88,50.63,26.13c0-1.58.95-2.71,3.43-3,1.09-.12,2.4-.13,2.4-.13v-.36c0-1-.34-1.41-1.18-1.41a19.89,19.89,0,0,0-3.48.51Z" transform="translate(-2.71 -4.63)">
  </path>
  <path class="cls-3" d="M85.25,24.3c0-2.37-.8-3.1-2-3.1-1.58,0-2.13.54-2.13,3.07,0,2.71.37,3.44,2.13,3.44s2-.86,2-3.41m-2-4.67c3,0,4.73,1.43,4.73,4.67s-1,5-4.73,5-4.81-1.53-4.81-5c0-3.28,1.57-4.64,4.81-4.64" transform="translate(-2.71 -4.63)">
  </path>
  <path class="cls-3" d="M98.6,21.32a4.88,4.88,0,0,0-1.81-.14c-1.31.18-1.62.91-1.62,3.11s.26,3.28,2.21,3.4a6.41,6.41,0,0,0,1.22,0Zm0-5.23h2.61v13a29.61,29.61,0,0,1-3.45.23c-4.41,0-5.31-1.82-5.31-5,0-2.86,1-4.64,4.34-4.64a13.62,13.62,0,0,1,1.81.11Z" transform="translate(-2.71 -4.63)">
  </path>
  <path class="cls-3" d="M108.7,23.63c-.07-1.86-.59-2.43-1.86-2.43s-1.73.58-1.8,2.43Zm2.29,5.2a19.36,19.36,0,0,1-4,.46c-3.9,0-4.69-2-4.69-4.84,0-3.54,1.65-4.82,4.46-4.82,3,0,4.6,1.42,4.6,4.51v1.07H105c.07,1.73.44,2.5,2,2.5a23.16,23.16,0,0,0,3.71-.45Z" transform="translate(-2.71 -4.63)">
  </path>
  <path class="cls-3" d="M60.48,20.55A11.77,11.77,0,0,1,65,19.61c3.38,0,4.54,1.64,4.54,4.64V29.1H66.88V24.25c0-2.3-.52-3.07-1.91-3.07a7.64,7.64,0,0,0-1.9.28V29.1H60.48Z" transform="translate(-2.71 -4.63)">
  </path>
 </g>
 <polygon class="cls-4" points="0 22.66 14.72 37.38 29.44 22.66 26.02 19.23 14.72 30.53 6.85 22.66 14.72 14.78 18.07 18.14 21.5 14.72 14.72 7.94 0 22.66">
 </polygon>
 <polygon class="cls-4" points="14.72 0 0 14.72 3.42 18.14 14.72 6.85 22.59 14.72 14.72 22.59 11.36 19.24 7.94 22.66 14.72 29.44 29.44 14.72 14.72 0">
 </polygon>
 <g class="cls-2">
  <path class="cls-4" d="M144.59,27.41a17.39,17.39,0,0,1-2.51.32c-1.78.08-2.12-.66-2.12-3.27s.35-3.36,2.12-3.28c.53,0,1.67.26,2.51.35l.25-1.53a25.07,25.07,0,0,0-2.67-.37c-4-.18-4.92,1.49-4.92,4.83s1,5,4.92,4.84A18.72,18.72,0,0,0,144.9,29Z" transform="translate(-2.71 -4.63)">
  </path>
  <path class="cls-4" d="M136.52,27.41a17.39,17.39,0,0,1-2.51.32c-1.78.08-2.12-.66-2.12-3.27s.34-3.36,2.12-3.28c.53,0,1.67.26,2.51.35l.25-1.53a25.24,25.24,0,0,0-2.68-.37c-4-.18-4.91,1.49-4.91,4.83s1,5,4.92,4.84a19.08,19.08,0,0,0,2.73-.35Z" transform="translate(-2.71 -4.63)">
  </path>
  <path class="cls-4" d="M122.05,27.43c2.89,0,3.4-1.45,3.4-5s-1.31-4.64-3.4-4.64c-2.55,0-3.51.94-3.51,4.6,0,3.86.58,5.08,3.51,5.08m6.09-5c0,4.52-1.19,6.87-6.09,6.87s-6.21-2-6.21-6.91c0-4.59,2-6.41,6.21-6.41,3.87,0,6.09,1.92,6.09,6.45" transform="translate(-2.71 -4.63)">
  </path>
 </g>
 <path class="cls-5" d="M146.12,19.8h2.59v9.31h-2.59Zm0-3.37h2.59v1.95h-2.59Z" transform="translate(-2.71 -4.63)">
 </path>
 <g class="cls-2">
  <path class="cls-4" d="M156.15,21.32a4.81,4.81,0,0,0-1.8-.14c-1.31.18-1.63.91-1.63,3.11s.27,3.3,2.22,3.4h.46c.23,0,.53,0,.75,0Zm0-5.23h2.62v13c-1.48.12-2.41.23-3.45.23-4.42,0-5.32-1.82-5.32-5,0-2.86,1-4.64,4.35-4.64a13.35,13.35,0,0,1,1.8.11Z" transform="translate(-2.71 -4.63)">
  </path>
  <path class="cls-4" d="M170.34,20.55a11.82,11.82,0,0,1,4.5-.94c3.37,0,4.53,1.64,4.53,4.64V29.1h-2.63V24.25c0-2.3-.51-3.07-1.9-3.07a7.65,7.65,0,0,0-1.91.28V29.1h-2.59Z" transform="translate(-2.71 -4.63)">
  </path>
  <path class="cls-4" d="M184.2,17.64v2.21h2.07v1.57H184.2V26c0,1.07.08,1.47.54,1.54a7.3,7.3,0,0,0,1.52-.08l.31,1.55a12,12,0,0,1-2.35.23c-2.3,0-2.7-1.06-2.7-3.24V21.42h-1.59V19.85h1.59V17.64Z" transform="translate(-2.71 -4.63)">
  </path>
  <path class="cls-4" d="M166.46,23.63c-.07-1.87-.59-2.44-1.86-2.44s-1.73.58-1.8,2.44Zm2.29,5.19a19.36,19.36,0,0,1-4,.46c-3.9,0-4.69-2-4.69-4.83,0-3.55,1.64-4.83,4.46-4.83,3,0,4.6,1.42,4.6,4.51V25.2H162.8c.07,1.73.44,2.5,2,2.5a23.16,23.16,0,0,0,3.71-.45Z" transform="translate(-2.71 -4.63)">
  </path>
  <path class="cls-4" d="M193.35,23.63c-.07-1.86-.59-2.43-1.86-2.43s-1.73.58-1.8,2.43Zm2.29,5.2a19.36,19.36,0,0,1-4,.46c-3.9,0-4.69-2-4.69-4.84,0-3.54,1.64-4.82,4.45-4.82,3,0,4.61,1.42,4.61,4.51v1.07h-6.31c.07,1.73.44,2.5,2,2.5a23.3,23.3,0,0,0,3.71-.45Z" transform="translate(-2.71 -4.63)">
  </path>
 </g>
 <path class="cls-6" d="M44.42,40.31c0,2.31-1,3.5-2.94,3.5H38.92v-7h2.56C43.43,36.81,44.42,38,44.42,40.31Zm-.73,0c0-1.87-.76-2.84-2.22-2.84H39.62v5.68h1.85C42.93,43.15,43.69,42.18,43.69,40.31Z" transform="translate(-2.71 -4.63)">
 </path>
 <path class="cls-6" d="M49.61,41.2c0,.11,0,.23,0,.34H46.16c.05,1.28.6,1.79,1.67,1.79A3.26,3.26,0,0,0,49.36,43l.09.56a3.4,3.4,0,0,1-1.66.41c-1.6,0-2.32-.81-2.32-2.63s.7-2.63,2.22-2.63C49.05,38.67,49.66,39.48,49.61,41.2ZM46.16,41H49c0-1.24-.4-1.74-1.28-1.74S46.24,39.73,46.16,41Z" transform="translate(-2.71 -4.63)">
 </path>
 <path class="cls-6" d="M50.89,36.32h.68v7.49h-.68Z" transform="translate(-2.71 -4.63)">
 </path>
 <path class="cls-6" d="M55.69,36.32h.68v7.49h-.68Z" transform="translate(-2.71 -4.63)">
 </path>
 <path class="cls-6" d="M61.48,40.31v3.28a5.77,5.77,0,0,1-2,.38c-1.06,0-1.87-.48-1.87-1.51,0-.83.43-1.45,1.58-1.55l1.6-.13v-.44c0-.8-.36-1.11-1.17-1.11a13.43,13.43,0,0,0-1.56.14L58,38.8c.54-.06,1.25-.13,1.69-.13C61,38.67,61.48,39.27,61.48,40.31Zm-1.95,3.11a4,4,0,0,0,1.27-.24V41.32l-1.47.13c-.79.06-1,.45-1,1S58.79,43.42,59.53,43.42Z" transform="translate(-2.71 -4.63)">
 </path>
 <path class="cls-6" d="M67,36.32V43.7a8.14,8.14,0,0,1-2,.23c-1.64,0-2.2-1-2.2-2.72s.6-2.53,2-2.53a4.12,4.12,0,0,1,1.52.28V36.32Zm-2,7a8.36,8.36,0,0,0,1.3-.09V39.54a4,4,0,0,0-1.4-.29c-1.06,0-1.43.66-1.43,2S63.77,43.37,65,43.37Z" transform="translate(-2.71 -4.63)">
 </path>
 <path class="cls-6" d="M68.22,41.3c0-1.75.76-2.62,2.28-2.62s2.27.87,2.27,2.62S72,43.93,70.5,43.93,68.22,43.05,68.22,41.3Zm3.85,0c0-1.38-.52-2-1.57-2s-1.59.67-1.59,2,.52,2.06,1.59,2.06S72.07,42.68,72.07,41.3Z" transform="translate(-2.71 -4.63)">
 </path>
 <path class="cls-6" d="M80.54,36.32V43.7a8.14,8.14,0,0,1-2,.23c-1.64,0-2.2-1-2.2-2.72s.6-2.53,2-2.53a4.12,4.12,0,0,1,1.52.28V36.32Zm-2,7a8.36,8.36,0,0,0,1.3-.09V39.54a4,4,0,0,0-1.4-.29c-1.06,0-1.43.66-1.43,2S77.36,43.37,78.56,43.37Z" transform="translate(-2.71 -4.63)">
 </path>
 <path class="cls-6" d="M86,41.2c0,.11,0,.23,0,.34H82.5c0,1.28.6,1.79,1.67,1.79A3.26,3.26,0,0,0,85.7,43l.09.56a3.4,3.4,0,0,1-1.66.41c-1.6,0-2.32-.81-2.32-2.63s.7-2.63,2.22-2.63C85.39,38.67,86,39.48,86,41.2ZM82.5,41h2.8c0-1.24-.4-1.74-1.28-1.74S82.58,39.73,82.5,41Z" transform="translate(-2.71 -4.63)">
 </path>
 <path class="cls-6" d="M89.8,36.32h.68v7.49H89.8Z" transform="translate(-2.71 -4.63)">
 </path>
 <path class="cls-6" d="M91.75,41.3c0-1.75.76-2.62,2.28-2.62s2.27.87,2.27,2.62-.76,2.63-2.27,2.63S91.75,43.05,91.75,41.3Zm3.85,0c0-1.38-.52-2-1.57-2s-1.59.67-1.59,2S93,43.36,94,43.36,95.6,42.68,95.6,41.3Z" transform="translate(-2.71 -4.63)">
 </path>
 <path class="cls-6" d="M97.23,43.78l.09-.57a6.58,6.58,0,0,0,1.29.16c.81,0,1.16-.22,1.16-.74s-.19-.69-.68-1l-1-.57c-.61-.33-.87-.69-.87-1.2,0-.79.6-1.23,1.67-1.23a5.54,5.54,0,0,1,1.4.14l-.07.56a4.76,4.76,0,0,0-1.3-.17c-.65,0-1,.26-1,.69s.17.51.64.75l1,.55a1.5,1.5,0,0,1,.93,1.41c0,.87-.61,1.32-1.77,1.32A8.28,8.28,0,0,1,97.23,43.78Z" transform="translate(-2.71 -4.63)">
 </path>
 <path class="cls-6" d="M108.1,38.88v7h-.68V43.66a4.23,4.23,0,0,1-1.47.27c-1.54,0-2-1-2-2.72s.59-2.53,2.08-2.53A13.08,13.08,0,0,1,108.1,38.88ZM107.42,43V39.34a11.06,11.06,0,0,0-1.4-.11c-1.06,0-1.43.66-1.43,2s.24,2.15,1.45,2.15A3.31,3.31,0,0,0,107.42,43Z" transform="translate(-2.71 -4.63)">
 </path>
 <path class="cls-6" d="M113.62,38.79v4.76a6,6,0,0,1-2.12.43c-1.34,0-1.85-.79-1.85-2.54V38.79h.68v2.64c0,1.33.3,2,1.16,2a5.37,5.37,0,0,0,1.45-.25V38.79Z" transform="translate(-2.71 -4.63)">
 </path>
 <path class="cls-6" d="M119,41.2c0,.11,0,.23,0,.34h-3.44c0,1.28.6,1.79,1.67,1.79a3.26,3.26,0,0,0,1.53-.37l.09.56a3.4,3.4,0,0,1-1.66.41c-1.6,0-2.32-.81-2.32-2.63s.7-2.63,2.22-2.63C118.48,38.67,119.09,39.48,119,41.2ZM115.59,41h2.8c0-1.24-.4-1.74-1.28-1.74S115.67,39.73,115.59,41Z" transform="translate(-2.71 -4.63)">
 </path>
 <path class="cls-6" d="M127,41.16v2.65h-.68V41.18c0-1.33-.39-1.91-1.39-1.91a4.52,4.52,0,0,0-1.35.24v4.3h-.68V36.32h.68v2.59a4.71,4.71,0,0,1,1.37-.23C126.41,38.68,127,39.42,127,41.16Z" transform="translate(-2.71 -4.63)">
 </path>
 <path class="cls-6" d="M132.11,40.31v3.28a5.77,5.77,0,0,1-2,.38c-1.06,0-1.87-.48-1.87-1.51,0-.83.43-1.45,1.58-1.55l1.6-.13v-.44c0-.8-.36-1.11-1.17-1.11a13.43,13.43,0,0,0-1.56.14l-.08-.57c.54-.06,1.25-.13,1.69-.13C131.62,38.67,132.11,39.27,132.11,40.31Zm-2,3.11a4,4,0,0,0,1.27-.24V41.32l-1.47.13c-.79.06-1.05.45-1.05,1S129.42,43.42,130.16,43.42Z" transform="translate(-2.71 -4.63)">
 </path>
 <path class="cls-6" d="M133.38,41.3c0-1.83.74-2.62,2-2.62a6.88,6.88,0,0,1,1.64.2l-.07.57a6.7,6.7,0,0,0-1.41-.18c-1,0-1.47.64-1.47,2s.53,2,1.67,2a3.74,3.74,0,0,0,1.19-.23l.06.58a3.83,3.83,0,0,1-1.32.24C134.15,43.93,133.38,43.13,133.38,41.3Z" transform="translate(-2.71 -4.63)">
 </path>
 <path class="cls-6" d="M142,41.2c0,.11,0,.23,0,.34h-3.44c0,1.28.6,1.79,1.67,1.79a3.26,3.26,0,0,0,1.53-.37l.09.56a3.4,3.4,0,0,1-1.66.41c-1.6,0-2.32-.81-2.32-2.63s.7-2.63,2.22-2.63C141.47,38.67,142.08,39.48,142,41.2ZM138.58,41h2.8c0-1.24-.4-1.74-1.28-1.74S138.66,39.73,138.58,41Z" transform="translate(-2.71 -4.63)">
 </path>
 <path class="cls-6" d="M147.41,41.16v2.65h-.68V41.18c0-1.33-.39-1.91-1.4-1.91a6.27,6.27,0,0,0-1.34.2v4.34h-.68V39.05a6.69,6.69,0,0,1,2-.37C146.82,38.68,147.41,39.42,147.41,41.16Z" transform="translate(-2.71 -4.63)">
 </path>
</svg>