<svg width="22" height="16" viewBox="0 0 22 16" fill="none" xmlns="http://www.w3.org/2000/svg">
<path fill-rule="evenodd" clip-rule="evenodd" d="M11.0031 0.203125C14.4393 0.203125 17.2798 2.75119 17.7384 6.06109L17.7621 6.26313L17.8432 6.2764C20.0253 6.66163 21.699 8.52121 21.7984 10.7893L21.8031 11.0031C21.8031 13.654 19.654 15.8031 17.0031 15.8031H6.00313C2.8003 15.8031 0.203125 13.206 0.203125 10.0031C0.203125 7.3341 2.02253 5.06621 4.53766 4.41288L4.74012 4.36413L4.86338 4.08948C5.93414 1.83065 8.18105 0.307309 10.7376 0.208262L11.0031 0.203125ZM11.0031 1.80313C8.76163 1.80313 6.79657 3.2368 6.08446 5.32891L5.92516 5.7969L5.43535 5.86377C3.36153 6.14691 1.80312 7.9041 1.80312 10.0031C1.80312 12.3223 3.68395 14.2031 6.00313 14.2031H17.0031C18.7703 14.2031 20.2031 12.7703 20.2031 11.0031C20.2031 9.23595 18.7703 7.80313 17.0031 7.80313H16.2031V7.00313C16.2031 4.13095 13.8753 1.80313 11.0031 1.80313ZM11.8031 5.70312L11.8021 9.57113L13.1701 8.20475L14.3015 9.33613L11.0031 12.6345L7.70475 9.33613L8.83613 8.20475L10.2021 9.57113L10.2031 5.70312H11.8031Z" fill="#0862C5"/>
</svg>
