<svg width="25" height="24" viewBox="0 0 25 24" fill="none" xmlns="http://www.w3.org/2000/svg">
<path fill-rule="evenodd" clip-rule="evenodd" d="M12.5031 4.19922C15.9393 4.19922 18.7798 6.74728 19.2384 10.0572L19.2621 10.2592L19.3432 10.2725C21.5253 10.6577 23.199 12.5173 23.2984 14.7854L23.3031 14.9992C23.3031 17.65 21.154 19.7992 18.5031 19.7992H7.50313C4.3003 19.7992 1.70312 17.202 1.70312 13.9992C1.70312 11.3302 3.52253 9.0623 6.03766 8.40897L6.24012 8.36022L6.36338 8.08557C7.43414 5.82675 9.68105 4.3034 12.2376 4.20436L12.5031 4.19922ZM12.5031 5.79922C10.2616 5.79922 8.29657 7.23289 7.58446 9.325L7.42516 9.79299L6.93535 9.85987C4.86153 10.143 3.30312 11.9002 3.30312 13.9992C3.30312 16.3184 5.18395 18.1992 7.50313 18.1992H18.5031C20.2703 18.1992 21.7031 16.7664 21.7031 14.9992C21.7031 13.232 20.2703 11.7992 18.5031 11.7992H17.7031V10.9992C17.7031 8.12705 15.3753 5.79922 12.5031 5.79922ZM13.3031 9.69922L13.3021 13.5672L14.6701 12.2008L15.8015 13.3322L12.5031 16.6306L9.20475 13.3322L10.3361 12.2008L11.7021 13.5672L11.7031 9.69922H13.3031Z" fill="white"/>
</svg>
