<svg width="23" height="16" viewBox="0 0 23 16" fill="none" xmlns="http://www.w3.org/2000/svg">
<path fill-rule="evenodd" clip-rule="evenodd" d="M11.5031 0.203125C14.9393 0.203125 17.7798 2.75119 18.2384 6.06109L18.2621 6.26313L18.3432 6.2764C20.5253 6.66163 22.199 8.52121 22.2984 10.7893L22.3031 11.0031C22.3031 13.654 20.154 15.8031 17.5031 15.8031H6.50313C3.3003 15.8031 0.703125 13.206 0.703125 10.0031C0.703125 7.3341 2.52253 5.06621 5.03766 4.41288L5.24012 4.36413L5.36338 4.08948C6.43414 1.83065 8.68105 0.307309 11.2376 0.208262L11.5031 0.203125ZM11.5031 1.80313C9.26163 1.80313 7.29657 3.2368 6.58446 5.32891L6.42516 5.7969L5.93535 5.86377C3.86153 6.14691 2.30312 7.9041 2.30312 10.0031C2.30312 12.3223 4.18395 14.2031 6.50313 14.2031H17.5031C19.2703 14.2031 20.7031 12.7703 20.7031 11.0031C20.7031 9.23595 19.2703 7.80313 17.5031 7.80313H16.7031V7.00313C16.7031 4.13095 14.3753 1.80313 11.5031 1.80313ZM12.3031 5.70312L12.3021 9.57113L13.6701 8.20475L14.8015 9.33613L11.5031 12.6345L8.20475 9.33613L9.33613 8.20475L10.7021 9.57113L10.7031 5.70312H12.3031Z" fill="white"/>
</svg>
